<svg width="128" height="128" viewBox="0 0 128 128" fill="none" xmlns="http://www.w3.org/2000/svg">
<path d="M50.0317 31.5095C50.0317 31.5095 48.1946 19.0469 40.7071 18.8384C40.7071 18.8384 30.6775 22.1551 20.6578 47.0108C10.6281 71.8565 6.67586 93.6933 10.3501 105.361C15.7125 108.281 16.5665 108.569 27.5792 110.545C26.0301 103.912 22.6339 100.098 30.3995 70.5854C33.9247 59.8507 44.2424 37.0506 50.0317 31.5095ZM33.0806 57.6561C32.743 58.5002 32.4054 59.3443 32.0777 60.1883C31.9982 60.3869 31.8096 60.516 31.601 60.516C31.5414 60.516 31.4819 60.5061 31.4123 60.4862C31.1442 60.3869 31.0151 60.089 31.1244 59.8209C31.4521 58.9768 31.7897 58.1228 32.1373 57.2787C32.2465 57.0206 32.5444 56.8915 32.8026 57.0007C33.0608 57.1099 33.1899 57.4078 33.0806 57.666V57.6561ZM37.5096 47.7158C37.1124 48.5202 36.7251 49.3543 36.3378 50.1686C36.2484 50.3573 36.0697 50.4665 35.8711 50.4665C35.8016 50.4665 35.7221 50.4467 35.6526 50.4169C35.3944 50.2977 35.2852 49.9899 35.4043 49.7416C35.7916 48.9075 36.1888 48.0832 36.5861 47.269C36.7052 47.0108 37.0131 46.9115 37.2713 47.0306C37.5294 47.1498 37.6287 47.4576 37.5096 47.7158ZM46.3575 30.7548C46.7746 30.1788 47.2016 29.6128 47.6187 29.0766C47.7875 28.8482 48.1152 28.8084 48.3337 28.9872C48.5621 29.156 48.6018 29.4837 48.423 29.7022C48.0159 30.2384 47.5988 30.7945 47.1817 31.3605C47.0824 31.4996 46.9235 31.5691 46.7647 31.5691C46.6554 31.5691 46.5561 31.5393 46.4667 31.4698C46.2384 31.301 46.1887 30.9832 46.3575 30.7548ZM43.2592 35.283C43.7558 34.4985 44.2721 33.7339 44.7687 32.9891C44.9275 32.7508 45.2453 32.6912 45.4836 32.8501C45.722 33.009 45.7816 33.3267 45.6227 33.5651C45.1262 34.2999 44.6197 35.0546 44.1232 35.8292C44.0239 35.9781 43.865 36.0675 43.6962 36.0675C43.5969 36.0675 43.5075 36.0377 43.4181 35.9881C43.1798 35.8391 43.1103 35.5214 43.2592 35.283ZM42.5145 37.4478C42.7528 37.5968 42.8322 37.9046 42.6932 38.1529C42.2364 38.9175 41.7697 39.702 41.3228 40.4965C41.2335 40.6653 41.0547 40.7546 40.876 40.7546C40.7866 40.7546 40.7071 40.7348 40.6178 40.6851C40.3695 40.5461 40.2901 40.2283 40.4291 39.99C40.8859 39.1857 41.3526 38.3912 41.8193 37.6266C41.9683 37.3883 42.2761 37.3088 42.5244 37.4478H42.5145ZM39.307 20.8642C39.9922 20.3081 40.3993 20.0201 40.4192 20.0102C40.6476 19.8513 40.9653 19.9009 41.1342 20.1393C41.293 20.3677 41.2434 20.6854 41.0051 20.8542C41.0051 20.8542 40.6078 21.1323 39.9524 21.6685C39.8531 21.748 39.7439 21.7877 39.6247 21.7877C39.4758 21.7877 39.3268 21.7281 39.2275 21.599C39.0488 21.3805 39.0786 21.0528 39.297 20.8741L39.307 20.8642ZM39.7836 42.1747C40.0319 42.3137 40.1213 42.6215 39.9922 42.8698C39.5652 43.6543 39.1382 44.4686 38.7211 45.2829C38.6317 45.4616 38.453 45.5609 38.2643 45.5609C38.1848 45.5609 38.1054 45.5411 38.0359 45.5014C37.7876 45.3723 37.6883 45.0644 37.8174 44.8162C38.2345 44.0019 38.6714 43.1776 39.0984 42.3832C39.2375 42.135 39.5453 42.0456 39.7936 42.1747H39.7836ZM35.3249 24.598C35.9505 23.9326 36.6059 23.2772 37.2514 22.6616C37.4599 22.4729 37.7777 22.4828 37.9763 22.6814C38.165 22.89 38.1551 23.2077 37.9564 23.4063C37.3209 24.0121 36.6854 24.6476 36.0697 25.2931C35.9704 25.4023 35.8314 25.452 35.6923 25.452C35.5632 25.452 35.4441 25.4023 35.3448 25.313C35.1362 25.1243 35.1263 24.7966 35.3249 24.588V24.598ZM34.9475 51.966C35.2057 52.0852 35.3249 52.3831 35.2057 52.6413C34.8383 53.4754 34.4808 54.2996 34.1233 55.1338C34.0439 55.3324 33.8552 55.4416 33.6566 55.4416C33.5871 55.4416 33.5176 55.4317 33.458 55.4019C33.1998 55.2927 33.0806 54.9948 33.1899 54.7266C33.5474 53.8925 33.9049 53.0484 34.2822 52.2143C34.4014 51.9561 34.6993 51.8369 34.9575 51.9561L34.9475 51.966ZM31.8294 28.7886C32.3657 28.0637 32.9317 27.3388 33.5176 26.6337C33.6963 26.4152 34.024 26.3854 34.2425 26.5642C34.461 26.7429 34.4908 27.0706 34.312 27.2891C33.746 27.9743 33.1899 28.6793 32.6636 29.3943C32.5643 29.5334 32.4054 29.6029 32.2465 29.6029C32.1373 29.6029 32.038 29.5731 31.9486 29.5036C31.7202 29.3348 31.6705 29.017 31.8394 28.7886H31.8294ZM28.8801 33.3863C29.0191 33.148 29.1482 32.8997 29.2873 32.6614C29.605 32.1152 29.9327 31.5691 30.2803 31.0428C30.4292 30.8044 30.747 30.7349 30.9853 30.8938C31.2237 31.0428 31.2932 31.3605 31.1343 31.5989C30.8066 32.1152 30.4789 32.6416 30.1711 33.1679C30.042 33.4062 29.9029 33.6445 29.7639 33.8828C29.6745 34.0517 29.4958 34.141 29.317 34.141C29.2277 34.141 29.1482 34.1212 29.0688 34.0715C28.8205 33.9325 28.7312 33.6247 28.8702 33.3764L28.8801 33.3863ZM26.3379 38.1728C26.7451 37.3684 27.1721 36.564 27.5892 35.7696C27.7183 35.5214 28.036 35.4221 28.2843 35.5611C28.5325 35.6902 28.6319 36.0079 28.4928 36.2562C28.0758 37.0407 27.6587 37.8451 27.2515 38.6395C27.1622 38.8182 26.9834 38.9175 26.7947 38.9175C26.7153 38.9175 26.6359 38.8977 26.5663 38.858C26.3181 38.7289 26.2188 38.421 26.3379 38.1728ZM23.9646 43.0486C24.3419 42.2343 24.7292 41.41 25.1264 40.5958C25.2456 40.3376 25.5534 40.2383 25.8116 40.3574C26.0698 40.4766 26.1691 40.7844 26.05 41.0426C25.6627 41.847 25.2655 42.6613 24.898 43.4756C24.8087 43.6642 24.6299 43.7735 24.4313 43.7735C24.3618 43.7735 24.2824 43.7536 24.2128 43.7238C23.9547 43.6047 23.8454 43.2968 23.9646 43.0486ZM21.77 48.0038C22.1175 47.1796 22.475 46.3355 22.8425 45.5113C22.9616 45.2531 23.2595 45.1339 23.5177 45.2531C23.7759 45.3723 23.8951 45.6702 23.7759 45.9284C23.4184 46.7426 23.051 47.5768 22.7134 48.401C22.6339 48.5996 22.4452 48.7188 22.2367 48.7188C22.1672 48.7188 22.1076 48.7088 22.0381 48.6791C21.7799 48.5698 21.6508 48.2719 21.7601 48.0038H21.77ZM22.5743 91.9654C22.5743 91.9654 22.5247 91.9654 22.4949 91.9654C22.2169 91.9257 22.0282 91.6576 22.0679 91.3795C22.2069 90.5057 22.3658 89.602 22.5446 88.6686C22.5942 88.3905 22.8623 88.2118 23.1404 88.2614C23.4184 88.3111 23.5972 88.5891 23.5475 88.8572C23.3688 89.7708 23.2099 90.6646 23.0808 91.5285C23.0411 91.7768 22.8226 91.9654 22.5743 91.9654ZM22.7332 94.2097C22.6339 95.1332 22.5644 96.0369 22.5247 96.9008C22.5148 97.1789 22.2864 97.3874 22.0182 97.3874H21.9984C21.7203 97.3775 21.5019 97.1391 21.5118 96.8512C21.5515 95.9674 21.631 95.0438 21.7303 94.1004C21.7601 93.8224 22.0083 93.6139 22.2963 93.6437C22.5743 93.6734 22.7829 93.9217 22.7531 94.2097H22.7332ZM10.8764 87.3379L10.9161 87.0698C10.9558 86.7917 11.214 86.5931 11.502 86.6428C11.7801 86.6825 11.9787 86.9407 11.929 87.2287L11.8893 87.4968C11.7801 88.2614 11.6808 89.0558 11.6212 89.8701C11.6013 90.1382 11.3729 90.3368 11.1147 90.3368C11.1048 90.3368 11.0849 90.3368 11.075 90.3368C10.797 90.317 10.5884 90.0687 10.6083 89.7808C10.6778 88.9466 10.7672 88.1224 10.8863 87.3379H10.8764ZM10.4494 93.4649C10.4494 93.1471 10.4494 92.8294 10.4494 92.5017C10.4494 92.2236 10.6977 91.9952 10.9757 91.9952C11.2538 91.9952 11.4821 92.2335 11.4821 92.5215C11.4821 92.8393 11.4821 93.1471 11.4821 93.4649C11.4821 94.0309 11.4921 94.6069 11.5119 95.1928C11.5119 95.4708 11.3034 95.7092 11.0154 95.7191C11.0154 95.7191 11.0055 95.7191 10.9956 95.7191C10.7175 95.7191 10.4891 95.5006 10.4891 95.2226C10.4693 94.6268 10.4593 94.0309 10.4593 93.455L10.4494 93.4649ZM10.9062 100.664C10.797 99.7607 10.6977 98.8472 10.6281 97.9534C10.6083 97.6754 10.8168 97.4271 11.0949 97.4073C11.3828 97.3874 11.6212 97.5959 11.641 97.874C11.7105 98.7578 11.7999 99.6515 11.9092 100.535C11.9389 100.813 11.7403 101.072 11.4623 101.101C11.4424 101.101 11.4226 101.101 11.4027 101.101C11.1445 101.101 10.9261 100.913 10.8963 100.654L10.9062 100.664ZM12.1673 105.113C12.1673 105.113 12.0978 105.123 12.0581 105.123C11.8198 105.123 11.6112 104.964 11.5616 104.716C11.5616 104.696 11.4524 104.21 11.3034 103.356C11.2538 103.077 11.4424 102.809 11.7205 102.77C11.9985 102.72 12.2666 102.909 12.3064 103.187C12.4454 104.021 12.5546 104.498 12.5546 104.507C12.6142 104.786 12.4355 105.054 12.1673 105.113ZM12.3461 84.5574C12.3064 84.8056 12.0879 84.9844 11.8396 84.9844C11.8099 84.9844 11.7801 84.9844 11.7602 84.9844C11.4821 84.9347 11.2935 84.6766 11.3431 84.3985C11.4821 83.5743 11.6311 82.6806 11.8099 81.7272C11.8595 81.4492 12.1276 81.2605 12.4057 81.3102C12.6837 81.3598 12.8724 81.6279 12.8227 81.906C12.6539 82.8593 12.495 83.7431 12.366 84.5574H12.3461ZM13.8555 76.6131C13.6569 77.5267 13.4781 78.4105 13.3093 79.2546C13.2597 79.5028 13.0511 79.6717 12.8128 79.6717C12.783 79.6717 12.7433 79.6717 12.7135 79.6717C12.4355 79.6121 12.2567 79.344 12.3064 79.0659C12.4851 78.1821 12.6639 77.2983 12.8525 76.4145C12.9121 76.1365 13.1802 75.9577 13.4583 76.0272C13.7363 76.0868 13.9052 76.3549 13.8456 76.633L13.8555 76.6131ZM15.0769 71.3699C14.8485 72.2636 14.64 73.1375 14.4414 73.9915C14.3818 74.2298 14.1733 74.3887 13.9449 74.3887C13.9052 74.3887 13.8654 74.3887 13.8257 74.3788C13.5477 74.3192 13.3788 74.0412 13.4484 73.7631C13.647 72.9091 13.8555 72.0352 14.0839 71.1316C14.1534 70.8535 14.4315 70.6946 14.7095 70.7641C14.9876 70.8337 15.1464 71.1117 15.0769 71.3898V71.3699ZM16.4672 66.1763C16.2189 67.0601 15.9707 67.9241 15.7522 68.7681C15.6926 68.9965 15.4841 69.1455 15.2557 69.1455C15.216 69.1455 15.1663 69.1455 15.1266 69.1256C14.8585 69.0561 14.6897 68.7681 14.7691 68.5C14.9975 67.646 15.2358 66.7721 15.494 65.8883C15.5735 65.6202 15.8515 65.4613 16.1296 65.5408C16.3977 65.6202 16.5566 65.8983 16.4771 66.1763H16.4672ZM18.0362 61.0225C17.7581 61.8765 17.49 62.7404 17.2318 63.5944C17.1623 63.8129 16.9637 63.9619 16.7452 63.9619C16.6956 63.9619 16.6459 63.9619 16.5963 63.942C16.3282 63.8626 16.1693 63.5746 16.2586 63.3065C16.5168 62.4425 16.7949 61.5786 17.0729 60.7246C17.1623 60.4564 17.4503 60.3075 17.7184 60.3969C17.9865 60.4862 18.1355 60.7742 18.0461 61.0423L18.0362 61.0225ZM19.7839 55.9282C19.4761 56.7723 19.1782 57.6263 18.8902 58.4704C18.8207 58.6789 18.6221 58.8179 18.4036 58.8179C18.3539 58.8179 18.2944 58.8179 18.2348 58.7882C17.9667 58.6988 17.8276 58.4108 17.917 58.1427C18.205 57.2986 18.5029 56.4347 18.8107 55.5906C18.91 55.3225 19.198 55.1834 19.4661 55.2827C19.7343 55.382 19.8733 55.67 19.774 55.9381L19.7839 55.9282ZM20.2407 53.7336C20.1811 53.7336 20.1215 53.7237 20.062 53.7038C19.7938 53.6045 19.6648 53.3066 19.7641 53.0385C20.0818 52.1944 20.4195 51.3503 20.7472 50.5162C20.8564 50.258 21.1543 50.1289 21.4125 50.2282C21.6707 50.3374 21.7998 50.6353 21.7005 50.8935C21.3728 51.7177 21.0451 52.5618 20.7174 53.4059C20.6379 53.6144 20.4492 53.7336 20.2407 53.7336ZM22.197 102.839C21.9487 102.839 21.7303 102.65 21.6905 102.402C21.5714 101.538 21.4919 100.605 21.4621 99.6317C21.4621 99.3536 21.6707 99.1153 21.9587 99.1053C22.2367 99.0954 22.475 99.3139 22.485 99.6019C22.5148 100.545 22.5843 101.439 22.7034 102.263C22.7432 102.541 22.5446 102.799 22.2665 102.839C22.2466 102.839 22.2169 102.839 22.197 102.839ZM24.3916 107.745C24.2923 107.844 24.1533 107.904 24.0242 107.904C23.8951 107.904 23.7759 107.854 23.6766 107.765C23.5972 107.695 22.902 106.99 22.3062 105.143C22.2169 104.875 22.3658 104.587 22.6339 104.498C22.902 104.408 23.19 104.557 23.2794 104.825C23.7958 106.424 24.3817 107.02 24.3817 107.03C24.5803 107.228 24.5902 107.546 24.3817 107.755L24.3916 107.745ZM24.7392 83.5544C24.5207 84.4482 24.3122 85.3419 24.1235 86.2058C24.0738 86.4442 23.8554 86.603 23.627 86.603C23.5872 86.603 23.5475 86.603 23.5177 86.5931C23.2397 86.5335 23.0709 86.2555 23.1304 85.9774C23.329 85.1135 23.5376 84.2098 23.7561 83.3062C23.8256 83.0281 24.0937 82.8593 24.3717 82.9288C24.6498 82.9983 24.8186 83.2764 24.7491 83.5445L24.7392 83.5544ZM26.0996 78.2814C25.8514 79.1751 25.623 80.049 25.3946 80.913C25.335 81.1414 25.1264 81.3002 24.898 81.3002C24.8583 81.3002 24.8087 81.3002 24.7689 81.2804C24.4909 81.2109 24.332 80.9328 24.4015 80.6548C24.6299 79.7908 24.8583 78.907 25.1066 78.0133C25.186 77.7452 25.4641 77.5863 25.7322 77.6558C26.0003 77.7352 26.1691 78.0133 26.0897 78.2814H26.0996ZM27.6289 73.0481C27.3608 73.9319 27.1026 74.7959 26.8444 75.6598C26.7749 75.8882 26.5763 76.0272 26.3578 76.0272C26.3082 76.0272 26.2585 76.0272 26.2188 76.0074C25.9507 75.9279 25.7918 75.6399 25.8712 75.3718C26.1195 74.5079 26.3876 73.634 26.6557 72.7502C26.7352 72.4821 27.0231 72.3232 27.2913 72.4126C27.5594 72.492 27.7183 72.78 27.6289 73.0481ZM29.2972 67.8645C29.0092 68.7284 28.7212 69.5924 28.4432 70.4464C28.3737 70.6648 28.1751 70.8039 27.9566 70.8039C27.9069 70.8039 27.8474 70.8039 27.7977 70.784C27.5296 70.6946 27.3806 70.4067 27.47 70.1385C27.7481 69.2746 28.036 68.4107 28.324 67.5368C28.4134 67.2687 28.7014 67.1296 28.9695 67.219C29.2376 67.3084 29.3766 67.5964 29.2873 67.8645H29.2972ZM29.7043 65.6302C29.6447 65.6302 29.5852 65.6302 29.5355 65.6004C29.2674 65.511 29.1284 65.2131 29.2277 64.945C29.5256 64.091 29.8434 63.227 30.1611 62.373C30.2604 62.1049 30.5484 61.9758 30.8165 62.0751C31.0846 62.1744 31.2137 62.4723 31.1144 62.7305C30.7967 63.5845 30.4888 64.4385 30.1909 65.2925C30.1214 65.5011 29.9228 65.6302 29.7043 65.6302Z" fill="#362375"/>
<path d="M72.7628 44.11C71.7697 23.6336 64.173 16.9605 60.7669 17.0002C47.3908 17.1591 40.7076 18.8373 40.7076 18.8373C57.7978 19.4728 52.1474 90.2861 52.1474 90.2861C63.0211 51.528 71.3527 46.0861 72.7628 44.11ZM54.5803 79.75C54.5605 80.0181 54.3321 80.2167 54.0739 80.2167C54.054 80.2167 54.0441 80.2167 54.0242 80.2167C53.7462 80.1869 53.5376 79.9387 53.5575 79.6606C53.5575 79.6606 53.6369 78.757 53.766 77.188C53.7859 76.9099 54.0342 76.6915 54.3122 76.7212C54.5903 76.7411 54.8087 76.9894 54.7789 77.2674C54.6598 78.8563 54.5704 79.7599 54.5704 79.7599L54.5803 79.75ZM54.9875 74.5266C54.9676 74.7948 54.7491 75.0033 54.481 75.0033C54.4711 75.0033 54.4612 75.0033 54.4413 75.0033C54.1633 74.9834 53.9448 74.7352 53.9646 74.4571C54.0242 73.6329 54.0838 72.7193 54.1434 71.7362C54.1633 71.4582 54.4016 71.2397 54.6896 71.2596C54.9676 71.2794 55.1861 71.5177 55.1662 71.8057C55.1066 72.7888 55.0471 73.7024 54.9875 74.5366V74.5266ZM55.3251 69.065C55.3152 69.343 55.0868 69.5515 54.8187 69.5515C54.8187 69.5515 54.7988 69.5515 54.7889 69.5515C54.5108 69.5317 54.2923 69.2934 54.3023 69.0153C54.3519 68.1414 54.3917 67.2278 54.4314 66.2944C54.4413 66.0163 54.6796 65.778 54.9676 65.8078C55.2457 65.8177 55.4641 66.0561 55.4542 66.344C55.4145 67.2874 55.3648 68.201 55.3251 69.0749V69.065ZM55.5634 63.6033C55.5535 63.8813 55.3251 64.0998 55.057 64.0998C55.057 64.0998 55.0471 64.0998 55.0371 64.0998C54.7591 64.0899 54.5307 63.8515 54.5406 63.5735C54.5704 62.6797 54.6002 61.7761 54.63 60.8526C54.63 60.5745 54.8683 60.3362 55.1563 60.356C55.4343 60.356 55.6627 60.5944 55.6528 60.8824C55.623 61.8158 55.6032 62.7195 55.5634 63.6132V63.6033ZM55.7124 58.1316C55.7124 58.4097 55.484 58.6381 55.196 58.6381C54.918 58.6381 54.6896 58.3998 54.6896 58.1217C54.7094 57.2181 54.7194 56.3144 54.7194 55.4008C54.7194 55.1228 54.9478 54.8944 55.2357 54.8944C55.5138 54.8944 55.7422 55.1228 55.7422 55.4107C55.7422 56.3343 55.7223 57.2478 55.7124 58.1515V58.1316ZM70.2802 42.4814C70.3298 43.0276 70.3795 43.5936 70.4192 44.1696C70.4391 44.4476 70.2305 44.6959 69.9426 44.7158C69.9326 44.7158 69.9128 44.7158 69.9028 44.7158C69.6347 44.7158 69.4163 44.5072 69.3964 44.2391C69.3567 43.6731 69.307 43.107 69.2574 42.5609C69.2276 42.2828 69.4361 42.0346 69.7241 42.0048C70.0021 41.9849 70.2504 42.1835 70.2802 42.4715V42.4814ZM69.6049 37.0396C69.744 37.9135 69.8731 38.8271 69.9823 39.7605C70.0121 40.0386 69.8135 40.2968 69.5354 40.3265C69.5156 40.3265 69.4957 40.3265 69.4758 40.3265C69.2177 40.3265 68.9992 40.1379 68.9694 39.8797C68.8602 38.9661 68.7311 38.0624 68.592 37.1985C68.5523 36.9204 68.741 36.6523 69.019 36.6126C69.2971 36.5629 69.5652 36.7616 69.6049 37.0396ZM68.5126 31.6474C68.7311 32.5014 68.9396 33.4051 69.1283 34.3286C69.1879 34.6067 69.0091 34.8748 68.7311 34.9344C68.7013 34.9344 68.6615 34.9443 68.6318 34.9443C68.3934 34.9443 68.175 34.7755 68.1352 34.5372C67.9466 33.6236 67.748 32.7398 67.5394 31.9056C67.4699 31.6276 67.6387 31.3495 67.9068 31.28C68.175 31.2105 68.4629 31.3793 68.5325 31.6474H68.5126ZM66.1392 26.1162C66.3974 26.007 66.6953 26.1361 66.8046 26.3943C67.1422 27.2086 67.46 28.0824 67.748 28.996C67.8373 29.2641 67.6884 29.5521 67.4203 29.6415C67.3706 29.6614 67.311 29.6614 67.2614 29.6614C67.0429 29.6614 66.8443 29.5223 66.7748 29.3039C66.4868 28.4201 66.179 27.5661 65.8513 26.7816C65.742 26.5234 65.8711 26.2255 66.1293 26.1162H66.1392ZM63.4382 21.3993C63.6666 21.2305 63.9844 21.2802 64.1532 21.5086C64.6696 22.2136 65.1661 23.018 65.6328 23.8819C65.7619 24.1302 65.6725 24.438 65.4243 24.577C65.3448 24.6167 65.2654 24.6366 65.1859 24.6366C65.0072 24.6366 64.8284 24.5373 64.7391 24.3685C64.3021 23.5443 63.8255 22.7896 63.3389 22.1143C63.1701 21.8859 63.2197 21.5681 63.4481 21.3993H63.4382ZM59.1483 18.2017C59.2178 17.9336 59.4958 17.7648 59.764 17.8343C59.8037 17.8443 60.8662 18.1124 62.2763 19.3934C62.4849 19.5821 62.5047 19.9098 62.3161 20.1183C62.2168 20.2275 62.0777 20.2871 61.9387 20.2871C61.8195 20.2871 61.6905 20.2474 61.5911 20.158C60.3896 19.0657 59.5256 18.8274 59.5157 18.8274C59.2476 18.7578 59.0788 18.4798 59.1483 18.2017ZM55.7521 52.66C55.7521 52.9381 55.5237 53.1764 55.2457 53.1764C54.9676 53.1764 54.7392 52.948 54.7293 52.67C54.7293 51.7663 54.7194 50.8527 54.6995 49.949C54.6995 49.671 54.918 49.4327 55.2059 49.4327C55.484 49.4327 55.7124 49.6511 55.7223 49.9391C55.7422 50.8527 55.7521 51.7663 55.7521 52.6799V52.66ZM55.5336 44.4476C55.5734 45.3215 55.6131 46.245 55.6528 47.1884C55.6528 47.4665 55.4443 47.7048 55.1563 47.7147C55.1563 47.7147 55.1464 47.7147 55.1364 47.7147C54.8584 47.7147 54.63 47.4963 54.63 47.2182C54.6002 46.2848 54.5605 45.3712 54.5207 44.4973C54.5108 44.2192 54.7194 43.971 55.0073 43.9611C55.2953 43.9511 55.5336 44.1597 55.5436 44.4476H55.5336ZM55.1364 38.986C55.1861 39.4527 55.2258 39.9293 55.2655 40.4159C55.3052 40.8529 55.335 41.2898 55.3648 41.7267C55.3847 42.0048 55.1761 42.253 54.8882 42.2729C54.8782 42.2729 54.8584 42.2729 54.8484 42.2729C54.5803 42.2729 54.3619 42.0644 54.342 41.7962C54.3122 41.3593 54.2824 40.9323 54.2427 40.4954C54.203 40.0187 54.1633 39.552 54.1136 39.0853C54.0838 38.8072 54.2923 38.549 54.5704 38.5292C54.8484 38.4994 55.1066 38.7079 55.1265 38.986H55.1364ZM54.3619 33.5441C54.5307 34.418 54.6796 35.3316 54.8087 36.2551C54.8484 36.5332 54.6498 36.7913 54.3718 36.8311C54.3519 36.8311 54.3221 36.8311 54.3023 36.8311C54.054 36.8311 53.8356 36.6424 53.7958 36.3941C53.6667 35.4805 53.5178 34.5868 53.3589 33.7229C53.3092 33.4448 53.488 33.1767 53.766 33.1271C54.0441 33.0675 54.3122 33.2561 54.3619 33.5342V33.5441ZM49.4563 21.3397C49.3669 21.3993 49.2676 21.4291 49.1683 21.4291C49.0094 21.4291 48.8406 21.3497 48.7413 21.2007C47.788 19.8005 47.0929 19.2345 47.0929 19.2345C46.8744 19.0558 46.8347 18.738 47.0134 18.5195C47.1922 18.3011 47.5099 18.2613 47.7284 18.4401C47.7582 18.4699 48.5427 19.0955 49.5854 20.6347C49.7443 20.873 49.6847 21.1908 49.4463 21.3497L49.4563 21.3397ZM51.8396 26.2354C51.78 26.2553 51.7105 26.2751 51.6509 26.2751C51.4423 26.2751 51.2537 26.156 51.1742 25.9474C50.8366 25.0835 50.4692 24.2593 50.0819 23.5045C49.9528 23.2563 50.0521 22.9485 50.3103 22.8194C50.5585 22.6903 50.8664 22.7896 50.9955 23.0478C51.3927 23.8323 51.78 24.6863 52.1275 25.58C52.2268 25.8382 52.0977 26.1361 51.8396 26.2453V26.2354ZM52.7829 31.0913C52.5645 30.1976 52.3261 29.3237 52.0679 28.4896C51.9885 28.2215 52.1375 27.9335 52.4056 27.854C52.6737 27.7746 52.9617 27.9236 53.0411 28.1917C53.3092 29.0457 53.5476 29.9394 53.776 30.853C53.8455 31.1311 53.6767 31.4091 53.3986 31.4687C53.3589 31.4687 53.3192 31.4786 53.2795 31.4786C53.0511 31.4786 52.8425 31.3197 52.7829 31.0913Z" fill="#362375"/>
<path d="M77.2509 40.4261C75.2152 41.439 63.0406 48.847 52.1371 90.2764L72.7525 88.6876C72.7525 88.6876 75.8507 72.938 79.2767 65.3115C82.7027 57.685 87.6579 50.0684 87.6579 50.0684C87.6579 50.0684 85.7513 35.3318 77.241 40.4162L77.2509 40.4261ZM77.4595 43.4548C78.1447 42.8094 78.8398 42.1937 79.5349 41.6277C79.7534 41.4489 80.0811 41.4787 80.2598 41.6972C80.4386 41.9156 80.4088 42.2433 80.1903 42.4221C79.515 42.9782 78.8398 43.574 78.1744 44.1996C78.0751 44.289 77.946 44.3386 77.8269 44.3386C77.6879 44.3386 77.5588 44.289 77.4595 44.1798C77.2609 43.9712 77.2708 43.6534 77.4793 43.4548H77.4595ZM73.7157 47.5064C74.3115 46.7815 74.9173 46.0764 75.523 45.421C75.7117 45.2125 76.0394 45.2026 76.248 45.3913C76.4565 45.5799 76.4664 45.9076 76.2777 46.1162C75.6819 46.7616 75.0861 47.4468 74.5101 48.1519C74.4108 48.2711 74.2619 48.3406 74.1129 48.3406C74.0037 48.3406 73.8845 48.3008 73.7852 48.2214C73.5668 48.0427 73.537 47.7249 73.7157 47.4965V47.5064ZM70.4486 51.9453C70.965 51.1707 71.5013 50.416 72.0276 49.6911C72.1964 49.4627 72.5141 49.413 72.7425 49.5819C72.9709 49.7507 73.0206 50.0684 72.8518 50.2968C72.3255 51.0118 71.8091 51.7566 71.3026 52.5113C71.2033 52.6603 71.0445 52.7397 70.8756 52.7397C70.7763 52.7397 70.677 52.7099 70.5877 52.6503C70.3493 52.4915 70.2898 52.1737 70.4486 51.9453ZM57.8371 85.0332C57.43 86.6916 57.2314 87.6846 57.2314 87.6945C57.1817 87.9428 56.9732 88.1017 56.7348 88.1017C56.705 88.1017 56.6653 88.1017 56.6355 88.0917C56.3575 88.0321 56.1787 87.764 56.2383 87.486C56.2383 87.4463 56.4369 86.4731 56.854 84.7849C56.9235 84.5069 57.2016 84.3381 57.4697 84.4076C57.7477 84.4771 57.9165 84.7551 57.847 85.0233L57.8371 85.0332ZM59.2571 79.7701C58.999 80.644 58.7507 81.5278 58.5223 82.3917C58.4627 82.6201 58.2542 82.7691 58.0258 82.7691C57.9861 82.7691 57.9364 82.7691 57.8967 82.7492C57.6286 82.6797 57.4598 82.3917 57.5392 82.1236C57.7775 81.2497 58.0258 80.356 58.284 79.4821C58.3634 79.214 58.6514 79.0551 58.9195 79.1346C59.1876 79.214 59.3465 79.502 59.2671 79.7701H59.2571ZM60.8857 74.5666C60.5977 75.4206 60.3098 76.2945 60.0416 77.1584C59.9721 77.3769 59.7735 77.5159 59.5551 77.5159C59.5054 77.5159 59.4557 77.5159 59.4061 77.4961C59.138 77.4067 58.989 77.1286 59.0685 76.8506C59.3465 75.9767 59.6246 75.1028 59.9225 74.2389C60.0118 73.9708 60.2998 73.8318 60.5679 73.9211C60.8361 74.0105 60.9751 74.2985 60.8857 74.5666ZM62.7427 69.4525C62.415 70.2866 62.0972 71.1506 61.7894 72.0046C61.7099 72.2131 61.5213 72.3422 61.3127 72.3422C61.2531 72.3422 61.1936 72.3422 61.134 72.3124C60.8659 72.2131 60.7268 71.9251 60.8261 71.657C61.134 70.7931 61.4617 69.9291 61.7894 69.0851C61.8887 68.8169 62.1866 68.6878 62.4547 68.7971C62.7228 68.8964 62.8519 69.1943 62.7427 69.4624V69.4525ZM64.8281 64.4277C64.4606 65.242 64.1031 66.0861 63.7556 66.9302C63.6761 67.1288 63.4875 67.2479 63.2789 67.2479C63.2094 67.2479 63.1498 67.238 63.0803 67.2082C62.8221 67.099 62.693 66.8011 62.8023 66.5429C63.1598 65.6988 63.5173 64.8448 63.8847 64.0206C64.0038 63.7624 64.3018 63.6432 64.5599 63.7624C64.8181 63.8816 64.9373 64.1795 64.8181 64.4377L64.8281 64.4277ZM67.1816 59.5321C66.7744 60.3166 66.3673 61.1408 65.9701 61.965C65.8807 62.1437 65.7019 62.253 65.5033 62.253C65.4338 62.253 65.3544 62.2331 65.2849 62.2033C65.0267 62.0842 64.9274 61.7763 65.0465 61.5181C65.4437 60.684 65.8608 59.8598 66.268 59.0554C66.3971 58.8071 66.7049 58.7078 66.9532 58.8369C67.2014 58.966 67.3007 59.2739 67.1716 59.5221L67.1816 59.5321ZM68.0256 57.407C67.9363 57.407 67.8568 57.3871 67.7774 57.3375C67.5291 57.1984 67.4397 56.8906 67.5788 56.6423C68.0356 55.828 68.5023 55.0336 68.969 54.269C69.118 54.0307 69.4357 53.9512 69.6741 54.1002C69.9124 54.2491 69.9918 54.5669 69.8429 54.8052C69.3861 55.5599 68.9194 56.3444 68.4725 57.1488C68.3831 57.3176 68.2044 57.407 68.0256 57.407ZM70.4983 86.4234C70.4586 86.6717 70.2401 86.8504 69.9918 86.8504C69.962 86.8504 69.9323 86.8504 69.9025 86.8504C69.6244 86.8008 69.4357 86.5426 69.4854 86.2645C69.6343 85.3708 69.7932 84.4572 69.962 83.5635C70.0117 83.2854 70.2798 83.0968 70.5579 83.1564C70.8359 83.206 71.0147 83.4741 70.965 83.7522C70.7962 84.636 70.6373 85.5396 70.4884 86.4334L70.4983 86.4234ZM72.0971 78.4295C71.8985 79.2934 71.6899 80.1872 71.5013 81.0809C71.4516 81.3192 71.2331 81.4881 71.0047 81.4881C70.965 81.4881 70.9352 81.4881 70.8955 81.4781C70.6175 81.4185 70.4387 81.1504 70.4983 80.8724C70.687 79.9687 70.8856 79.065 71.0941 78.2011C71.1636 77.9231 71.4317 77.7542 71.7098 77.8238C71.9878 77.8933 72.1567 78.1614 72.0871 78.4394L72.0971 78.4295ZM73.4675 73.1764C73.2192 74.0403 72.9809 74.9142 72.7525 75.798C72.6929 76.0264 72.4844 76.1852 72.256 76.1852C72.2162 76.1852 72.1666 76.1852 72.1269 76.1654C71.8488 76.0959 71.6899 75.8178 71.7594 75.5398C71.9878 74.656 72.2361 73.7622 72.4844 72.8983C72.5638 72.6302 72.8418 72.4713 73.1199 72.5507C73.388 72.6302 73.5469 72.9082 73.4675 73.1863V73.1764ZM75.1159 68.0026C74.818 68.8467 74.53 69.7107 74.2619 70.5746C74.1924 70.7931 73.9938 70.9321 73.7753 70.9321C73.7257 70.9321 73.676 70.9321 73.6164 70.9122C73.3483 70.8229 73.1993 70.5349 73.2788 70.2668C73.5568 69.3929 73.8448 68.5091 74.1427 67.665C74.2321 67.3969 74.53 67.2579 74.7981 67.3472C75.0662 67.4366 75.2053 67.7345 75.1159 68.0026ZM77.0523 62.9382C76.7047 63.7624 76.3671 64.6065 76.0394 65.4505C75.96 65.6591 75.7713 65.7782 75.5628 65.7782C75.5032 65.7782 75.4436 65.7683 75.384 65.7485C75.1159 65.6492 74.9868 65.3512 75.0861 65.0831C75.4138 64.2291 75.7614 63.3652 76.1089 62.531C76.2182 62.2728 76.5161 62.1437 76.7842 62.253C77.0424 62.3622 77.1715 62.6601 77.0622 62.9282L77.0523 62.9382ZM79.3363 58.0227C78.9391 58.8071 78.5319 59.6314 78.1546 60.4556C78.0652 60.6443 77.8865 60.7535 77.6879 60.7535C77.6183 60.7535 77.5389 60.7336 77.4694 60.7038C77.2112 60.5847 77.102 60.2768 77.2211 60.0286C77.6084 59.1845 78.0156 58.3504 78.4227 57.5559C78.5518 57.3077 78.8596 57.2084 79.1079 57.3375C79.3562 57.4665 79.4555 57.7744 79.3264 58.0227H79.3363ZM82.0075 53.3157C81.5408 54.0505 81.0741 54.835 80.6173 55.6294C80.5279 55.7983 80.3492 55.8876 80.1704 55.8876C80.0811 55.8876 80.0016 55.8678 79.9222 55.8181C79.6739 55.6791 79.5945 55.3712 79.7335 55.123C80.2002 54.3087 80.6769 53.5143 81.1535 52.7596C81.3025 52.5212 81.6203 52.4517 81.8586 52.6007C82.0969 52.7496 82.1664 53.0674 82.0175 53.3057L82.0075 53.3157ZM83.5269 51.0913C83.4276 51.2303 83.2687 51.2998 83.1098 51.2998C83.0006 51.2998 82.9013 51.27 82.8119 51.2005C82.5835 51.0317 82.5339 50.7139 82.7027 50.4855C83.7652 49.0258 84.4405 48.3306 84.4603 48.3008C84.659 48.1022 84.9767 48.0923 85.1853 48.2909C85.3839 48.4895 85.3938 48.8073 85.1952 49.0158C85.1952 49.0158 84.5398 49.6911 83.5269 51.0813V51.0913Z" fill="#362375"/>
<path d="M102.464 50.1068C102.117 46.7503 101.541 39.4019 97.8366 38.8756C87.8765 37.952 80.0017 39.4019 80.0017 39.4019C89.4852 39.4714 87.9956 60.1761 89.1575 68.5077C90.3193 76.8392 94.3709 81.586 99.8127 81.586C105.255 81.586 108.035 78.2295 109.654 76.025C103.983 77.1868 102.822 53.4533 102.474 50.0968L102.464 50.1068ZM101.59 66.8394C101.809 67.753 102.047 68.6269 102.315 69.4213C102.405 69.6894 102.256 69.9774 101.987 70.0668C101.938 70.0866 101.878 70.0965 101.829 70.0965C101.61 70.0965 101.412 69.9575 101.342 69.749C101.064 68.9248 100.816 68.0211 100.597 67.0777C100.528 66.7997 100.706 66.5316 100.975 66.462C101.253 66.3925 101.521 66.5713 101.59 66.8394ZM88.0949 43.6818C88.0254 43.7116 87.9559 43.7315 87.8864 43.7315C87.6878 43.7315 87.509 43.6223 87.4197 43.4336C86.7345 41.9341 86.1685 41.1198 86.1685 41.1099C86.0096 40.8815 86.0592 40.5637 86.2975 40.3949C86.5259 40.236 86.8437 40.2857 87.0125 40.524C87.0324 40.5637 87.6282 41.4078 88.3631 43.0066C88.4822 43.2648 88.3631 43.5627 88.1148 43.6818H88.0949ZM89.1575 48.4981C88.939 47.6242 88.6908 46.7503 88.4028 45.9261C88.3134 45.658 88.4524 45.37 88.7205 45.2806C88.9887 45.1912 89.2767 45.3303 89.366 45.5984C89.6639 46.4623 89.9221 47.3561 90.1505 48.2597C90.22 48.5378 90.0512 48.8158 89.7732 48.8754C89.7334 48.8853 89.6937 48.8853 89.654 48.8853C89.4256 48.8853 89.2171 48.7265 89.1575 48.4981ZM89.6838 51.1296C89.6441 50.8515 89.8327 50.5834 90.1108 50.5437C90.3888 50.504 90.657 50.6927 90.6967 50.9707C90.8357 51.8744 90.9549 52.7979 91.0244 53.7214C91.0442 53.9995 90.8357 54.2477 90.5577 54.2676C90.5477 54.2676 90.5279 54.2676 90.5179 54.2676C90.2498 54.2676 90.0314 54.069 90.0115 53.8009C89.942 52.9071 89.8328 52.0035 89.6937 51.1296H89.6838ZM90.1108 56.6409V56.492C90.1108 56.2139 90.3392 55.9756 90.6172 55.9756C90.8953 55.9756 91.1237 56.204 91.1336 56.482V56.631C91.1336 57.5148 91.1436 58.3787 91.1733 59.193C91.1733 59.4711 90.9549 59.7094 90.6768 59.7193C90.6768 59.7193 90.6669 59.7193 90.657 59.7193C90.3789 59.7193 90.1505 59.5009 90.1505 59.2228C90.1307 58.3887 90.1108 57.5148 90.1108 56.631V56.6409ZM90.5179 64.7242C90.4186 63.8504 90.3392 62.9268 90.2796 61.9835C90.2598 61.7054 90.4782 61.4571 90.7563 61.4373C91.0343 61.4174 91.2826 61.6359 91.3024 61.9139C91.362 62.8474 91.4415 63.761 91.5408 64.615C91.5706 64.893 91.372 65.1512 91.084 65.181C91.0641 65.181 91.0442 65.181 91.0244 65.181C90.7662 65.181 90.5477 64.9924 90.5179 64.7242ZM91.9578 70.5633C91.7294 70.5633 91.5209 70.4044 91.4613 70.176C91.2528 69.3319 91.0641 68.4183 90.8953 67.465C90.8456 67.187 91.0343 66.9188 91.3124 66.8791C91.5904 66.8295 91.8585 67.0181 91.8983 67.2962C92.0571 68.2296 92.2359 69.1134 92.4444 69.9277C92.5139 70.2058 92.3451 70.4838 92.077 70.5533C92.0373 70.5633 91.9976 70.5732 91.9479 70.5732L91.9578 70.5633ZM94.1425 75.588C94.0631 75.6377 93.9737 75.6575 93.8943 75.6575C93.7155 75.6575 93.5467 75.5682 93.4474 75.3994C93.0204 74.6446 92.6232 73.7807 92.2756 72.8473C92.1763 72.5791 92.3153 72.2912 92.5835 72.1919C92.8516 72.0925 93.1396 72.2316 93.2389 72.4997C93.5666 73.3835 93.934 74.1978 94.3411 74.9028C94.4802 75.1511 94.3908 75.4589 94.1524 75.598L94.1425 75.588ZM98.1444 79.1431C98.0551 79.3318 97.8763 79.441 97.6777 79.441C97.6082 79.441 97.5288 79.4211 97.4593 79.3913C96.6152 78.9941 95.8207 78.4182 95.1157 77.6933C94.9171 77.4947 94.927 77.167 95.1256 76.9683C95.3242 76.7697 95.6519 76.7797 95.8505 76.9783C96.4662 77.6138 97.1514 78.1103 97.8863 78.4579C98.1444 78.5771 98.2537 78.8849 98.1345 79.1431H98.1444ZM98.1941 43.1655C97.9955 43.1655 97.8068 43.0463 97.7174 42.8477C97.0819 41.2986 96.4662 40.6928 96.4563 40.6829C96.2577 40.4843 96.2478 40.1665 96.4364 39.958C96.6251 39.7494 96.9528 39.7395 97.1514 39.9381C97.1812 39.9679 97.916 40.6729 98.6509 42.4505C98.7601 42.7087 98.631 43.0066 98.3728 43.1158C98.3133 43.1456 98.2438 43.1555 98.1742 43.1555L98.1941 43.1655ZM98.9587 48.0115C98.8495 47.078 98.6906 46.1942 98.5019 45.3799C98.4424 45.1019 98.6112 44.8338 98.8892 44.7642C99.1673 44.7047 99.4354 44.8735 99.5049 45.1515C99.7035 46.0055 99.8624 46.9291 99.9816 47.8923C100.011 48.1704 99.8127 48.4285 99.5347 48.4583C99.5148 48.4583 99.495 48.4583 99.4751 48.4583C99.2169 48.4583 98.9985 48.2697 98.9687 48.0115H98.9587ZM99.1971 52.2219C99.1971 51.6956 99.1971 51.1792 99.1673 50.6827C99.1573 50.4047 99.3758 50.1664 99.6638 50.1564C99.9518 50.1465 100.18 50.365 100.19 50.6529C100.21 51.1594 100.22 51.6956 100.22 52.2319C100.22 52.6191 100.22 53.0064 100.22 53.3937C100.22 53.6718 99.9915 53.9101 99.7134 53.9101C99.4354 53.9101 99.207 53.6817 99.1971 53.4036C99.1971 53.0064 99.1971 52.6191 99.1971 52.2219ZM99.4255 58.8951C99.3559 58.0113 99.3063 57.0878 99.2765 56.1543C99.2666 55.8763 99.485 55.638 99.7631 55.6181C100.061 55.6082 100.279 55.8266 100.299 56.1047C100.339 57.0282 100.389 57.9418 100.448 58.8157C100.468 59.0937 100.26 59.342 99.9716 59.3618C99.9617 59.3618 99.9418 59.3618 99.9319 59.3618C99.6638 59.3618 99.4453 59.1533 99.4255 58.8852V58.8951ZM100.131 61.0699C100.409 61.0401 100.667 61.2387 100.697 61.5167C100.806 62.4502 100.925 63.3439 101.074 64.1979C101.124 64.476 100.935 64.7441 100.657 64.7838C100.627 64.7838 100.597 64.7838 100.567 64.7838C100.319 64.7838 100.101 64.6051 100.061 64.3568C99.912 63.4929 99.7929 62.5693 99.6836 61.626C99.6539 61.3479 99.8525 61.0897 100.131 61.0599V61.0699ZM102.981 79.8779C102.236 80.0269 101.511 80.1063 100.826 80.1063C100.637 80.1063 100.448 80.1063 100.27 80.0865C99.9915 80.0666 99.773 79.8283 99.7929 79.5403C99.8127 79.2523 100.041 79.0438 100.339 79.0636C101.094 79.1133 101.918 79.0438 102.782 78.865C103.06 78.8055 103.328 78.9842 103.388 79.2623C103.447 79.5403 103.269 79.8084 102.99 79.868L102.981 79.8779ZM104.53 74.883C104.44 74.9525 104.331 74.9823 104.232 74.9823C104.073 74.9823 103.924 74.9128 103.815 74.7737C103.298 74.0687 102.812 73.2445 102.385 72.3408C102.266 72.0826 102.375 71.7847 102.623 71.6556C102.881 71.5364 103.179 71.6457 103.308 71.8939C103.715 72.738 104.162 73.5027 104.639 74.1581C104.808 74.3865 104.758 74.7042 104.53 74.873V74.883ZM107.161 77.1372C107.062 77.296 106.893 77.3755 106.724 77.3755C106.635 77.3755 106.536 77.3457 106.456 77.296C106.228 77.157 106.009 76.9981 105.791 76.8293C105.562 76.6605 105.523 76.3328 105.701 76.1143C105.87 75.8859 106.198 75.8462 106.416 76.025C106.605 76.1739 106.804 76.303 107.002 76.4321C107.241 76.5811 107.31 76.8988 107.161 77.1372Z" fill="#362375"/>
<path d="M122.771 65.3125C122.771 65.3125 114.39 67.3681 111.261 67.944C110.934 74.4385 109.633 76.0373 109.633 76.0373C106.525 81.0024 100.576 81.5983 100.576 81.5983C125.978 80.208 122.771 65.3224 122.771 65.3224V65.3125ZM111.182 77.6857C110.179 79.205 109.226 79.8108 109.186 79.8307C109.107 79.8803 109.007 79.9101 108.918 79.9101C108.749 79.9101 108.58 79.8207 108.481 79.6718C108.332 79.4334 108.402 79.1157 108.64 78.9667C108.65 78.9667 109.454 78.4404 110.328 77.1197C110.487 76.8813 110.805 76.8218 111.033 76.9807C111.271 77.1395 111.331 77.4573 111.172 77.6857H111.182ZM112.463 75.1535C112.384 75.362 112.195 75.4812 111.986 75.4812C111.927 75.4812 111.867 75.4712 111.808 75.4514C111.54 75.3521 111.41 75.0542 111.51 74.796C111.808 74.0115 112.046 73.1575 112.225 72.2538C112.274 71.9758 112.552 71.797 112.821 71.8467C113.099 71.8963 113.277 72.1744 113.228 72.4425C113.039 73.3958 112.791 74.3094 112.473 75.1535H112.463ZM113.565 69.6818C113.545 69.95 113.327 70.1585 113.059 70.1585C113.049 70.1585 113.039 70.1585 113.029 70.1585C112.751 70.1386 112.533 69.9003 112.552 69.6123C112.572 69.2548 112.592 68.8775 112.592 68.5001C112.592 68.2221 112.84 67.9838 113.109 67.9937C113.387 67.9937 113.615 68.232 113.615 68.5101C113.615 68.8974 113.595 69.2946 113.565 69.6719V69.6818ZM119.792 72.8099C119.315 73.6738 118.759 74.4484 118.143 75.1237C118.044 75.2329 117.905 75.2925 117.766 75.2925C117.647 75.2925 117.518 75.2528 117.418 75.1535C117.21 74.9648 117.2 74.6371 117.388 74.4286C117.955 73.8129 118.461 73.0979 118.898 72.3134C119.037 72.0651 119.345 71.9758 119.593 72.1148C119.841 72.2538 119.931 72.5616 119.792 72.8099ZM120.914 70.2181C120.844 70.4366 120.646 70.5656 120.427 70.5656C120.378 70.5656 120.318 70.5656 120.268 70.5359C120 70.4465 119.851 70.1585 119.941 69.8904C120.417 68.4406 120.536 67.3482 120.546 67.3383C120.576 67.0602 120.824 66.8517 121.112 66.8815C121.39 66.9113 121.599 67.1595 121.569 67.4475C121.569 67.4972 121.44 68.659 120.924 70.2181H120.914Z" fill="#362375"/>
</svg>
