<svg width="645" height="157" viewBox="0 0 645 157" fill="none" xmlns="http://www.w3.org/2000/svg">
<path d="M213.356 14.1648C216.256 14.1648 218.772 14.8481 220.922 16.1981C223.072 17.5648 224.139 20.1314 224.139 23.898C224.139 27.6645 223.072 29.9978 220.922 31.3978C218.772 32.7978 216.256 33.4977 213.356 33.4977C210.456 33.4977 207.839 32.7978 205.723 31.3978C203.623 29.9978 202.573 27.4979 202.573 23.898C202.573 20.298 203.623 17.5648 205.723 16.1981C207.823 14.8315 210.373 14.1648 213.356 14.1648ZM223.222 42.4476V114.279H203.356V42.4476H223.222Z" fill="#EDEDED"/>
<path d="M283.608 41.1308C291.508 41.1308 297.724 43.1974 302.291 47.314C306.857 51.4306 309.124 58.1471 309.124 67.4469V114.279H289.391V72.4468C289.391 67.2803 288.441 63.397 286.558 60.7971C284.675 58.2138 281.758 56.9138 277.808 56.9138C271.842 56.9138 267.792 58.9471 265.642 63.0304C263.492 67.1136 262.425 72.9635 262.425 80.5967V114.279H242.559V42.4475H257.825L260.592 52.0473H261.375C262.958 49.6806 264.858 47.6807 267.092 46.0641C269.325 44.4474 271.825 43.2141 274.591 42.3808C277.358 41.5475 280.358 41.1308 283.608 41.1308Z" fill="#EDEDED"/>
<path d="M370.815 35.749C367.048 35.749 363.648 36.4656 360.615 37.9156C357.582 39.3656 355.032 41.4655 352.915 44.2321C350.815 46.9987 349.215 50.332 348.115 54.2319C347.015 58.1318 346.465 62.5817 346.465 67.5816C346.465 74.1648 347.382 79.798 349.232 84.4812C351.065 89.1811 353.848 92.7477 357.582 95.1977C361.315 97.6476 365.981 98.881 371.598 98.881C375.715 98.881 379.681 98.3976 383.498 97.431C387.314 96.4643 391.148 95.231 395.014 93.7477V110.847C391.064 112.514 387.048 113.714 382.981 114.464C378.898 115.214 374.365 115.581 369.365 115.581C359.365 115.581 351.148 113.581 344.699 109.597C338.249 105.614 333.465 99.9809 330.366 92.6977C327.249 85.4146 325.699 76.9981 325.699 67.4483C325.699 60.3484 326.682 53.8319 328.666 47.9154C330.632 41.9988 333.549 36.8823 337.415 32.5824C341.265 28.2825 346.015 24.9492 351.615 22.5826C357.215 20.216 363.715 19.0327 371.081 19.0327C375.731 19.0327 380.448 19.5326 385.231 20.5493C390.014 21.5659 394.548 23.1159 398.847 25.2159L392.264 41.2655C389.114 39.7822 385.748 38.4822 382.198 37.3823C378.648 36.2823 374.848 35.7323 370.815 35.7323V35.749Z" fill="#EDEDED"/>
<path d="M432.384 34.4301C432.384 38.2967 432.267 41.68 432.051 44.6299C431.834 47.5632 431.634 49.9131 431.467 51.6631H432.517C434.101 49.1131 435.934 47.0965 438.051 45.6132C440.15 44.1299 442.5 43.0133 445.084 42.2633C447.667 41.5133 450.417 41.1466 453.3 41.1466C458.467 41.1466 462.983 42.0633 466.85 43.9132C470.716 45.7465 473.716 48.5798 475.866 52.3964C478.016 56.213 479.083 61.2295 479.083 67.4627V114.295H459.217V72.4626C459.217 67.2961 458.3 63.4128 456.45 60.8129C454.617 58.2296 451.717 56.9296 447.767 56.9296C443.817 56.9296 440.867 57.8463 438.617 59.6962C436.384 61.5462 434.784 64.2128 433.817 67.7294C432.851 71.246 432.367 75.5292 432.367 80.6125V114.295H412.501V14.2972H432.367V34.4301H432.384Z" fill="#EDEDED"/>
<path d="M530.113 41.1308C539.146 41.1308 546.029 43.2641 550.763 47.514C555.496 51.7639 557.863 58.0638 557.863 66.397V114.279H544.046L540.23 104.546H539.696C537.68 107.096 535.596 109.196 533.446 110.863C531.296 112.529 528.813 113.729 526.013 114.479C523.213 115.229 519.78 115.596 515.747 115.596C511.714 115.596 507.764 114.779 504.43 113.163C501.097 111.546 498.464 109.063 496.531 105.729C494.597 102.396 493.631 98.1963 493.631 93.0964C493.631 85.5632 496.347 79.8967 501.78 76.1301C507.214 72.3635 515.33 70.2635 526.113 69.8136L538.08 69.4136V67.1803C538.08 62.8804 537.113 59.8804 535.18 58.1638C533.246 56.4472 530.53 55.5972 527.03 55.5972C523.78 55.5972 520.447 56.1305 517.03 57.1805C513.613 58.2305 510.23 59.4971 506.897 60.9971L501.114 47.4474C504.88 45.5141 509.197 43.9808 514.063 42.8475C518.93 41.7141 524.263 41.1308 530.046 41.1308H530.113ZM530.646 81.3966C524.413 81.58 520.08 82.5799 517.63 84.4299C515.18 86.2799 513.947 88.8631 513.947 92.1964C513.947 95.263 514.797 97.5296 516.513 98.9629C518.23 100.413 520.48 101.13 523.28 101.13C527.497 101.13 531.013 99.8963 533.863 97.4463C536.713 94.9964 538.146 91.4798 538.146 86.9299V81.0133L530.646 81.4133V81.3966Z" fill="#EDEDED"/>
<path d="M617.059 41.1325C625.393 41.1325 631.976 44.2657 636.792 50.5323C641.609 56.7988 644.025 66.0319 644.025 78.215C644.025 86.2815 642.859 93.1314 640.542 98.7312C638.226 104.348 634.976 108.548 630.809 111.364C626.642 114.164 621.893 115.581 616.543 115.581C613.026 115.581 610.01 115.114 607.46 114.198C604.91 113.281 602.793 112.131 601.076 110.781C599.36 109.414 597.893 107.998 596.676 106.498H595.893C596.076 108.081 596.243 109.898 596.426 111.964C596.593 114.031 596.693 116.148 596.693 118.348V145.847H576.827V42.4491H593.01L595.776 51.7823H596.693C598.01 49.7656 599.56 47.9657 601.36 46.3824C603.16 44.7991 605.343 43.5324 607.943 42.5658C610.526 41.5991 613.576 41.1158 617.093 41.1158L617.059 41.1325ZM610.493 56.9155C607.16 56.9155 604.493 57.6155 602.476 59.0154C600.46 60.4154 599.01 62.532 598.126 65.332C597.243 68.1319 596.76 71.6985 596.676 75.9817V78.0817C596.676 82.6483 597.093 86.5148 597.926 89.7148C598.76 92.9147 600.21 95.348 602.26 97.0146C604.326 98.6812 607.11 99.5146 610.609 99.5146C613.593 99.5146 616.076 98.6812 618.043 97.0146C620.009 95.348 621.476 92.9147 622.443 89.7148C623.409 86.5148 623.893 82.5983 623.893 77.9484C623.893 70.8485 622.776 65.5653 620.543 62.0987C618.309 58.6321 614.959 56.8988 610.476 56.8988L610.493 56.9155Z" fill="#EDEDED"/>
<path d="M68.8645 24.3529C68.8645 24.3529 65.7812 3.43672 53.2148 3.08673C53.2148 3.08673 36.3818 8.65328 19.5655 50.3691C2.73254 92.0682 -3.90065 128.717 2.26589 148.3C11.2657 153.2 12.699 153.684 31.1819 157C28.582 145.867 22.8821 139.467 35.9152 89.9349C41.8317 71.9186 59.148 33.6527 68.8645 24.3529ZM40.4151 68.2353C39.8484 69.652 39.2818 71.0686 38.7318 72.4853C38.5984 72.8186 38.2818 73.0352 37.9318 73.0352C37.8318 73.0352 37.7318 73.0186 37.6151 72.9852C37.1651 72.8186 36.9485 72.3186 37.1318 71.8686C37.6818 70.452 38.2485 69.0187 38.8318 67.602C39.0151 67.1687 39.5151 66.952 39.9484 67.1354C40.3817 67.3187 40.5984 67.8187 40.4151 68.252V68.2353ZM47.8482 51.5524C47.1816 52.9023 46.5316 54.3023 45.8816 55.6689C45.7316 55.9856 45.4316 56.1689 45.0983 56.1689C44.9816 56.1689 44.8483 56.1356 44.7317 56.0856C44.2983 55.8856 44.115 55.369 44.315 54.9523C44.965 53.5523 45.6316 52.169 46.2983 50.8024C46.4983 50.3691 47.0149 50.2024 47.4483 50.4024C47.8816 50.6024 48.0482 51.119 47.8482 51.5524ZM62.6979 23.0863C63.3979 22.1197 64.1146 21.1697 64.8146 20.2697C65.0979 19.8864 65.6479 19.8197 66.0145 20.1197C66.3979 20.403 66.4645 20.953 66.1645 21.3197C65.4812 22.2197 64.7812 23.153 64.0812 24.1029C63.9146 24.3363 63.6479 24.4529 63.3813 24.4529C63.1979 24.4529 63.0313 24.4029 62.8813 24.2863C62.4979 24.003 62.4146 23.4696 62.6979 23.0863ZM57.498 30.6861C58.3314 29.3695 59.198 28.0862 60.0313 26.8362C60.298 26.4362 60.8313 26.3362 61.2313 26.6029C61.6313 26.8696 61.7313 27.4029 61.4646 27.8029C60.6313 29.0362 59.7813 30.3028 58.948 31.6028C58.7814 31.8528 58.5147 32.0028 58.2314 32.0028C58.0647 32.0028 57.9147 31.9528 57.7647 31.8695C57.3647 31.6195 57.2481 31.0861 57.498 30.6861ZM56.2481 34.3194C56.6481 34.5694 56.7814 35.086 56.5481 35.5027C55.7814 36.786 54.9981 38.1026 54.2481 39.436C54.0981 39.7193 53.7981 39.8693 53.4981 39.8693C53.3481 39.8693 53.2148 39.8359 53.0648 39.7526C52.6481 39.5193 52.5148 38.986 52.7481 38.586C53.5148 37.236 54.2981 35.9027 55.0814 34.6194C55.3314 34.2194 55.8481 34.0861 56.2647 34.3194H56.2481ZM50.8649 6.48666C52.0148 5.55334 52.6981 5.07002 52.7315 5.05336C53.1148 4.78669 53.6481 4.87003 53.9315 5.27002C54.1981 5.65334 54.1148 6.18667 53.7148 6.46999C53.7148 6.46999 53.0481 6.93665 51.9482 7.83663C51.7815 7.96996 51.5982 8.03663 51.3982 8.03663C51.1482 8.03663 50.8982 7.93663 50.7315 7.71997C50.4315 7.35331 50.4815 6.80332 50.8482 6.50333L50.8649 6.48666ZM51.6648 42.2526C52.0815 42.4859 52.2315 43.0025 52.0148 43.4192C51.2982 44.7358 50.5815 46.1025 49.8815 47.4691C49.7315 47.7691 49.4315 47.9358 49.1149 47.9358C48.9816 47.9358 48.8482 47.9024 48.7316 47.8358C48.3149 47.6191 48.1482 47.1025 48.3649 46.6858C49.0649 45.3192 49.7982 43.9359 50.5149 42.6026C50.7482 42.1859 51.2648 42.0359 51.6815 42.2526H51.6648ZM44.1817 12.7532C45.2316 11.6365 46.3316 10.5366 47.4149 9.50326C47.7649 9.1866 48.2982 9.20327 48.6316 9.53659C48.9482 9.88659 48.9316 10.4199 48.5982 10.7532C47.5316 11.7699 46.4649 12.8365 45.4316 13.9198C45.265 14.1032 45.0316 14.1865 44.7983 14.1865C44.5817 14.1865 44.3817 14.1032 44.215 13.9532C43.865 13.6365 43.8483 13.0865 44.1817 12.7365V12.7532ZM43.5483 58.6855C43.9817 58.8855 44.1817 59.3855 43.9817 59.8189C43.365 61.2188 42.765 62.6021 42.165 64.0021C42.0317 64.3354 41.715 64.5188 41.3817 64.5188C41.2651 64.5188 41.1484 64.5021 41.0484 64.4521C40.6151 64.2688 40.4151 63.7688 40.5984 63.3188C41.1984 61.9188 41.7984 60.5022 42.4317 59.1022C42.6317 58.6689 43.1317 58.4689 43.565 58.6689L43.5483 58.6855ZM38.3151 19.7864C39.2151 18.5697 40.1651 17.3531 41.1484 16.1698C41.4484 15.8031 41.9984 15.7531 42.365 16.0531C42.7317 16.3531 42.7817 16.9031 42.4817 17.2698C41.5317 18.4197 40.5984 19.603 39.7151 20.803C39.5484 21.0363 39.2818 21.153 39.0151 21.153C38.8318 21.153 38.6651 21.103 38.5151 20.9863C38.1318 20.703 38.0485 20.1697 38.3318 19.7864H38.3151ZM33.3652 27.5029C33.5986 27.1029 33.8152 26.6862 34.0485 26.2862C34.5819 25.3696 35.1319 24.4529 35.7152 23.5696C35.9652 23.1696 36.4985 23.053 36.8985 23.3196C37.2985 23.5696 37.4151 24.1029 37.1485 24.5029C36.5985 25.3696 36.0485 26.2529 35.5318 27.1362C35.3152 27.5362 35.0819 27.9362 34.8485 28.3362C34.6985 28.6195 34.3985 28.7695 34.0985 28.7695C33.9485 28.7695 33.8152 28.7362 33.6819 28.6529C33.2652 28.4195 33.1152 27.9029 33.3486 27.4862L33.3652 27.5029ZM29.0986 35.536C29.782 34.1861 30.4986 32.8361 31.1986 31.5028C31.4153 31.0861 31.9486 30.9195 32.3652 31.1528C32.7819 31.3695 32.9486 31.9028 32.7152 32.3194C32.0153 33.6361 31.3153 34.9861 30.6319 36.3194C30.482 36.6193 30.182 36.786 29.8653 36.786C29.732 36.786 29.5986 36.7527 29.482 36.686C29.0653 36.4694 28.8987 35.9527 29.0986 35.536ZM25.1154 43.7192C25.7487 42.3526 26.3987 40.9693 27.0654 39.6026C27.2654 39.1693 27.782 39.0026 28.2153 39.2026C28.6487 39.4026 28.8153 39.9193 28.6153 40.3526C27.9653 41.7026 27.2987 43.0692 26.682 44.4358C26.532 44.7525 26.232 44.9358 25.8987 44.9358C25.7821 44.9358 25.6487 44.9025 25.5321 44.8525C25.0987 44.6525 24.9154 44.1359 25.1154 43.7192ZM21.4321 52.0357C22.0155 50.6524 22.6155 49.2357 23.2321 47.8524C23.4321 47.4191 23.9321 47.2191 24.3654 47.4191C24.7987 47.6191 24.9987 48.1191 24.7987 48.5524C24.1988 49.9191 23.5821 51.319 23.0154 52.7023C22.8821 53.0357 22.5655 53.2357 22.2155 53.2357C22.0988 53.2357 21.9988 53.219 21.8821 53.169C21.4488 52.9857 21.2322 52.4857 21.4155 52.0357H21.4321ZM22.7821 125.817C22.7821 125.817 22.6988 125.817 22.6488 125.817C22.1821 125.751 21.8655 125.301 21.9321 124.834C22.1655 123.368 22.4321 121.851 22.7321 120.284C22.8155 119.818 23.2654 119.518 23.7321 119.601C24.1988 119.684 24.4987 120.151 24.4154 120.601C24.1154 122.134 23.8488 123.634 23.6321 125.084C23.5654 125.501 23.1988 125.817 22.7821 125.817ZM23.0488 129.584C22.8821 131.134 22.7655 132.651 22.6988 134.101C22.6821 134.567 22.2988 134.917 21.8488 134.917H21.8155C21.3488 134.901 20.9822 134.501 20.9988 134.017C21.0655 132.534 21.1988 130.984 21.3655 129.401C21.4155 128.934 21.8321 128.584 22.3155 128.634C22.7821 128.684 23.1321 129.101 23.0821 129.584H23.0488ZM3.1492 118.051L3.21587 117.601C3.28253 117.134 3.71586 116.801 4.19918 116.884C4.66584 116.951 4.99916 117.384 4.91583 117.868L4.84917 118.318C4.66584 119.601 4.49917 120.934 4.39917 122.301C4.36584 122.751 3.98252 123.084 3.54919 123.084C3.53253 123.084 3.49919 123.084 3.48253 123.084C3.01587 123.051 2.66588 122.634 2.69921 122.151C2.81587 120.751 2.96587 119.368 3.16587 118.051H3.1492ZM2.43255 128.334C2.43255 127.801 2.43255 127.267 2.43255 126.717C2.43255 126.251 2.84921 125.867 3.31586 125.867C3.78252 125.867 4.16585 126.267 4.16585 126.751C4.16585 127.284 4.16585 127.801 4.16585 128.334C4.16585 129.284 4.18251 130.251 4.21585 131.234C4.21585 131.701 3.86585 132.101 3.38253 132.117C3.38253 132.117 3.36586 132.117 3.3492 132.117C2.88254 132.117 2.49921 131.751 2.49921 131.284C2.46588 130.284 2.44922 129.284 2.44922 128.317L2.43255 128.334ZM3.1992 140.417C3.01587 138.901 2.84921 137.367 2.73254 135.867C2.69921 135.401 3.0492 134.984 3.51586 134.951C3.99918 134.917 4.39917 135.267 4.43251 135.734C4.54917 137.217 4.69917 138.717 4.8825 140.2C4.9325 140.667 4.59917 141.1 4.13251 141.15C4.09918 141.15 4.06585 141.15 4.03252 141.15C3.59919 141.15 3.23253 140.834 3.18253 140.4L3.1992 140.417ZM5.31582 147.884C5.31582 147.884 5.19916 147.9 5.13249 147.9C4.7325 147.9 4.38251 147.634 4.29918 147.217C4.29918 147.184 4.11585 146.367 3.86585 144.934C3.78252 144.467 4.09918 144.017 4.56584 143.95C5.03249 143.867 5.48248 144.184 5.54915 144.65C5.78248 146.05 5.96581 146.85 5.96581 146.867C6.06581 147.334 5.76581 147.784 5.31582 147.884ZM5.61582 113.384C5.54915 113.801 5.18249 114.101 4.76583 114.101C4.71583 114.101 4.66584 114.101 4.6325 114.101C4.16585 114.018 3.84919 113.584 3.93252 113.118C4.16585 111.734 4.41584 110.234 4.71583 108.634C4.79917 108.168 5.24916 107.851 5.71581 107.934C6.18247 108.018 6.49913 108.468 6.4158 108.934C6.13247 110.534 5.86581 112.018 5.64915 113.384H5.61582ZM8.14909 100.051C7.81577 101.585 7.51578 103.068 7.23245 104.485C7.14912 104.901 6.79912 105.185 6.39913 105.185C6.34913 105.185 6.28247 105.185 6.23247 105.185C5.76581 105.085 5.46582 104.635 5.54915 104.168C5.84914 102.685 6.14914 101.201 6.4658 99.718C6.5658 99.2514 7.01579 98.9514 7.48244 99.068C7.9491 99.168 8.23243 99.618 8.13243 100.085L8.14909 100.051ZM10.1991 91.2515C9.81573 92.7515 9.46573 94.2181 9.13241 95.6514C9.03241 96.0514 8.68242 96.3181 8.29909 96.3181C8.23243 96.3181 8.16576 96.3181 8.0991 96.3014C7.63244 96.2014 7.34911 95.7348 7.46578 95.2681C7.7991 93.8348 8.14909 92.3682 8.53242 90.8515C8.64908 90.3849 9.11574 90.1182 9.5824 90.2349C10.0491 90.3515 10.3157 90.8182 10.1991 91.2849V91.2515ZM12.5323 82.535C12.1157 84.0183 11.699 85.4683 11.3324 86.8849C11.2324 87.2683 10.8824 87.5183 10.499 87.5183C10.4324 87.5183 10.349 87.5183 10.2824 87.4849C9.83239 87.3683 9.54906 86.8849 9.6824 86.435C10.0657 85.0017 10.4657 83.535 10.899 82.0517C11.0324 81.6017 11.499 81.3351 11.9657 81.4684C12.4157 81.6017 12.6823 82.0684 12.549 82.535H12.5323ZM15.1656 73.8852C14.699 75.3185 14.249 76.7685 13.8156 78.2018C13.699 78.5685 13.3657 78.8185 12.999 78.8185C12.9157 78.8185 12.8323 78.8185 12.749 78.7851C12.299 78.6518 12.0323 78.1685 12.1823 77.7185C12.6157 76.2685 13.0823 74.8185 13.549 73.3852C13.699 72.9352 14.1823 72.6852 14.6323 72.8352C15.0823 72.9852 15.3323 73.4686 15.1823 73.9186L15.1656 73.8852ZM18.0989 65.3354C17.5822 66.752 17.0822 68.1853 16.5989 69.602C16.4823 69.952 16.1489 70.1853 15.7823 70.1853C15.6989 70.1853 15.5989 70.1853 15.4989 70.1353C15.0489 69.9853 14.8156 69.502 14.9656 69.052C15.4489 67.6354 15.9489 66.1854 16.4656 64.7688C16.6322 64.3188 17.1156 64.0854 17.5656 64.2521C18.0156 64.4188 18.2489 64.9021 18.0822 65.3521L18.0989 65.3354ZM18.8655 61.6522C18.7655 61.6522 18.6655 61.6355 18.5655 61.6021C18.1156 61.4355 17.8989 60.9355 18.0656 60.4855C18.5989 59.0689 19.1655 57.6522 19.7155 56.2523C19.8988 55.8189 20.3988 55.6023 20.8322 55.7689C21.2655 55.9523 21.4821 56.4523 21.3155 56.8856C20.7655 58.2689 20.2155 59.6855 19.6655 61.1022C19.5322 61.4522 19.2155 61.6522 18.8655 61.6522ZM22.1488 144.067C21.7321 144.067 21.3655 143.75 21.2988 143.334C21.0988 141.884 20.9655 140.317 20.9155 138.684C20.9155 138.217 21.2655 137.817 21.7488 137.801C22.2155 137.784 22.6155 138.151 22.6321 138.634C22.6821 140.217 22.7988 141.717 22.9988 143.1C23.0654 143.567 22.7321 144 22.2655 144.067C22.2321 144.067 22.1821 144.067 22.1488 144.067ZM25.8321 152.3C25.6654 152.467 25.4321 152.567 25.2154 152.567C24.9987 152.567 24.7987 152.484 24.6321 152.334C24.4987 152.217 23.3321 151.034 22.3321 147.934C22.1821 147.484 22.4321 147 22.8821 146.85C23.3321 146.7 23.8154 146.95 23.9654 147.4C24.8321 150.084 25.8154 151.084 25.8154 151.1C26.1487 151.434 26.1654 151.967 25.8154 152.317L25.8321 152.3ZM26.4154 111.701C26.0487 113.201 25.6987 114.701 25.3821 116.151C25.2987 116.551 24.9321 116.818 24.5487 116.818C24.4821 116.818 24.4154 116.818 24.3654 116.801C23.8988 116.701 23.6154 116.234 23.7154 115.768C24.0488 114.318 24.3987 112.801 24.7654 111.284C24.8821 110.818 25.3321 110.534 25.7987 110.651C26.2654 110.768 26.5487 111.234 26.432 111.684L26.4154 111.701ZM28.6987 102.851C28.282 104.351 27.8987 105.818 27.5154 107.268C27.4154 107.651 27.0654 107.918 26.682 107.918C26.6154 107.918 26.532 107.918 26.4654 107.885C25.9987 107.768 25.7321 107.301 25.8487 106.835C26.232 105.385 26.6154 103.901 27.032 102.401C27.1654 101.951 27.632 101.685 28.082 101.801C28.532 101.935 28.8153 102.401 28.682 102.851H28.6987ZM31.2653 94.0681C30.8153 95.5514 30.382 97.0014 29.9486 98.4514C29.832 98.8347 29.4986 99.068 29.132 99.068C29.0487 99.068 28.9653 99.068 28.8987 99.0347C28.4487 98.9014 28.182 98.418 28.3153 97.968C28.732 96.5181 29.182 95.0514 29.632 93.5681C29.7653 93.1181 30.2486 92.8515 30.6986 93.0015C31.1486 93.1348 31.4153 93.6181 31.2653 94.0681ZM34.0652 85.3683C33.5819 86.8183 33.0986 88.2682 32.6319 89.7016C32.5152 90.0682 32.1819 90.3015 31.8153 90.3015C31.7319 90.3015 31.6319 90.3015 31.5486 90.2682C31.0986 90.1182 30.8486 89.6349 30.9986 89.1849C31.4653 87.7349 31.9486 86.285 32.4319 84.8183C32.5819 84.3683 33.0652 84.135 33.5152 84.285C33.9652 84.435 34.1985 84.9183 34.0485 85.3683H34.0652ZM34.7485 81.6184C34.6485 81.6184 34.5485 81.6184 34.4652 81.5684C34.0152 81.4184 33.7819 80.9184 33.9485 80.4684C34.4485 79.0351 34.9819 77.5851 35.5152 76.1518C35.6818 75.7018 36.1652 75.4852 36.6152 75.6519C37.0651 75.8185 37.2818 76.3185 37.1151 76.7518C36.5818 78.1851 36.0652 79.6184 35.5652 81.0517C35.4485 81.4017 35.1152 81.6184 34.7485 81.6184Z" fill="#EDEDED"/>
<path d="M107.017 45.4993C105.35 11.1334 92.6004 -0.0663697 86.8838 0.000295544C64.4343 0.266957 53.2179 3.08356 53.2179 3.08356C81.9006 4.15021 72.4175 122.998 72.4175 122.998C90.6671 57.9491 104.65 48.8159 107.017 45.4993ZM76.5007 105.315C76.4674 105.765 76.084 106.098 75.6507 106.098C75.6174 106.098 75.6007 106.098 75.5674 106.098C75.1007 106.048 74.7507 105.631 74.7841 105.165C74.7841 105.165 74.9174 103.648 75.1341 101.015C75.1674 100.548 75.5841 100.181 76.0507 100.231C76.5174 100.265 76.884 100.681 76.834 101.148C76.634 103.815 76.484 105.331 76.484 105.331L76.5007 105.315ZM77.184 96.5482C77.1507 96.9982 76.784 97.3482 76.334 97.3482C76.3174 97.3482 76.3007 97.3482 76.2674 97.3482C75.8007 97.3149 75.4341 96.8982 75.4674 96.4316C75.5674 95.0483 75.6674 93.515 75.7674 91.865C75.8007 91.3983 76.2007 91.0317 76.684 91.065C77.1507 91.0983 77.5173 91.4983 77.484 91.9817C77.384 93.6316 77.284 95.1649 77.184 96.5649V96.5482ZM77.7507 87.3818C77.734 87.8484 77.3507 88.1984 76.9007 88.1984C76.9007 88.1984 76.8674 88.1984 76.8507 88.1984C76.384 88.1651 76.0174 87.7651 76.034 87.2984C76.1174 85.8318 76.184 84.2985 76.2507 82.7319C76.2674 82.2652 76.6674 81.8652 77.1507 81.9152C77.6173 81.9319 77.984 82.3319 77.9673 82.8152C77.9007 84.3985 77.8173 85.9318 77.7507 87.3984V87.3818ZM78.1507 78.2153C78.134 78.6819 77.7507 79.0486 77.3007 79.0486C77.3007 79.0486 77.284 79.0486 77.2673 79.0486C76.8007 79.0319 76.4174 78.632 76.434 78.1653C76.484 76.6653 76.534 75.1487 76.584 73.5987C76.584 73.1321 76.984 72.7321 77.4673 72.7654C77.934 72.7654 78.3173 73.1654 78.3007 73.6487C78.2507 75.2154 78.2173 76.732 78.1507 78.232V78.2153ZM78.4007 69.0321C78.4007 69.4988 78.0173 69.8821 77.534 69.8821C77.0674 69.8821 76.684 69.4821 76.684 69.0155C76.7174 67.4989 76.734 65.9822 76.734 64.4489C76.734 63.9823 77.1174 63.5989 77.6007 63.5989C78.0673 63.5989 78.4507 63.9823 78.4507 64.4656C78.4507 66.0156 78.4173 67.5488 78.4007 69.0655V69.0321ZM102.85 42.766C102.933 43.6827 103.017 44.6327 103.083 45.5993C103.117 46.066 102.767 46.4826 102.283 46.516C102.267 46.516 102.233 46.516 102.217 46.516C101.767 46.516 101.4 46.166 101.367 45.716C101.3 44.766 101.217 43.816 101.133 42.8994C101.083 42.4327 101.433 42.0161 101.917 41.9661C102.383 41.9327 102.8 42.2661 102.85 42.7494V42.766ZM101.717 33.6329C101.95 35.0995 102.167 36.6328 102.35 38.1995C102.4 38.6661 102.067 39.0995 101.6 39.1495C101.567 39.1495 101.533 39.1495 101.5 39.1495C101.067 39.1495 100.7 38.8328 100.65 38.3995C100.467 36.8662 100.25 35.3495 100.017 33.8996C99.9502 33.4329 100.267 32.9829 100.734 32.9163C101.2 32.8329 101.65 33.1663 101.717 33.6329ZM99.8835 24.5831C100.25 26.0164 100.6 27.533 100.917 29.083C101.017 29.5497 100.717 29.9997 100.25 30.0997C100.2 30.0997 100.134 30.1163 100.084 30.1163C99.6835 30.1163 99.3169 29.833 99.2502 29.433C98.9335 27.8997 98.6002 26.4164 98.2502 25.0164C98.1336 24.5498 98.4169 24.0831 98.8669 23.9665C99.3169 23.8498 99.8002 24.1331 99.9169 24.5831H99.8835ZM95.9003 15.3C96.3336 15.1166 96.8336 15.3333 97.0169 15.7666C97.5836 17.1333 98.1169 18.5999 98.6002 20.1332C98.7502 20.5832 98.5002 21.0665 98.0502 21.2165C97.9669 21.2498 97.8669 21.2498 97.7836 21.2498C97.4169 21.2498 97.0836 21.0165 96.9669 20.6499C96.4836 19.1666 95.9669 17.7333 95.417 16.4166C95.2336 15.9833 95.4503 15.4833 95.8836 15.3H95.9003ZM91.367 7.38347C91.7504 7.10014 92.2837 7.18348 92.567 7.5668C93.4337 8.75011 94.267 10.1001 95.0503 11.55C95.267 11.9667 95.117 12.4834 94.7003 12.7167C94.567 12.7834 94.4336 12.8167 94.3003 12.8167C94.0003 12.8167 93.7003 12.65 93.5503 12.3667C92.817 10.9834 92.017 9.71676 91.2004 8.58345C90.9171 8.20012 91.0004 7.6668 91.3837 7.38347H91.367ZM84.1672 2.01692C84.2839 1.56693 84.7505 1.2836 85.2005 1.40027C85.2672 1.41693 87.0505 1.86692 89.4171 4.01688C89.7671 4.33354 89.8004 4.88352 89.4837 5.23352C89.3171 5.41685 89.0838 5.51684 88.8504 5.51684C88.6504 5.51684 88.4338 5.45018 88.2671 5.30018C86.2505 3.46689 84.8005 3.0669 84.7838 3.0669C84.3339 2.95023 84.0505 2.48358 84.1672 2.01692ZM78.4673 59.849C78.4673 60.3157 78.084 60.7157 77.6173 60.7157C77.1507 60.7157 76.7674 60.3323 76.7507 59.8657C76.7507 58.349 76.734 56.8157 76.7007 55.2991C76.7007 54.8325 77.0673 54.4325 77.5507 54.4325C78.0173 54.4325 78.4007 54.7991 78.4173 55.2824C78.4507 56.8157 78.4673 58.349 78.4673 59.8823V59.849ZM78.1007 46.066C78.1673 47.5326 78.234 49.0826 78.3007 50.6659C78.3007 51.1325 77.9507 51.5325 77.4673 51.5492C77.4673 51.5492 77.4507 51.5492 77.434 51.5492C76.9674 51.5492 76.584 51.1825 76.584 50.7159C76.534 49.1492 76.4674 47.6159 76.4007 46.1493C76.384 45.6827 76.734 45.266 77.2174 45.2493C77.7007 45.2327 78.1007 45.5827 78.1173 46.066H78.1007ZM77.434 36.8995C77.5173 37.6828 77.584 38.4828 77.6507 39.2995C77.7173 40.0328 77.7673 40.7661 77.8173 41.4994C77.8507 41.9661 77.5007 42.3827 77.0173 42.4161C77.0007 42.4161 76.9673 42.4161 76.9507 42.4161C76.5007 42.4161 76.134 42.0661 76.1007 41.6161C76.0507 40.8828 76.0007 40.1661 75.934 39.4328C75.8674 38.6328 75.8007 37.8495 75.7174 37.0662C75.6674 36.5995 76.0174 36.1662 76.484 36.1329C76.9507 36.0829 77.384 36.4329 77.4173 36.8995H77.434ZM76.134 27.7664C76.4174 29.233 76.6674 30.7663 76.884 32.3163C76.9507 32.7829 76.6174 33.2163 76.1507 33.2829C76.1174 33.2829 76.0674 33.2829 76.034 33.2829C75.6174 33.2829 75.2507 32.9663 75.1841 32.5496C74.9674 31.0163 74.7174 29.5163 74.4507 28.0664C74.3674 27.5997 74.6674 27.1497 75.1341 27.0664C75.6007 26.9664 76.0507 27.283 76.134 27.7497V27.7664ZM67.9009 7.28347C67.7509 7.38347 67.5842 7.43347 67.4176 7.43347C67.1509 7.43347 66.8676 7.30014 66.7009 7.05015C65.1009 4.7002 63.9343 3.75022 63.9343 3.75022C63.5676 3.45022 63.501 2.9169 63.801 2.55024C64.101 2.18358 64.6343 2.11692 65.0009 2.41691C65.0509 2.46691 66.3676 3.51689 68.1175 6.10017C68.3842 6.50016 68.2842 7.03348 67.8842 7.30014L67.9009 7.28347ZM71.9008 15.5C71.8008 15.5333 71.6841 15.5666 71.5841 15.5666C71.2341 15.5666 70.9175 15.3666 70.7842 15.0166C70.2175 13.5667 69.6008 12.1834 68.9509 10.9167C68.7342 10.5001 68.9009 9.98342 69.3342 9.76675C69.7508 9.55009 70.2675 9.71676 70.4842 10.1501C71.1508 11.4667 71.8008 12.9 72.3841 14.4C72.5508 14.8333 72.3341 15.3333 71.9008 15.5166V15.5ZM73.4841 23.6498C73.1174 22.1498 72.7174 20.6832 72.2841 19.2832C72.1508 18.8332 72.4008 18.3499 72.8508 18.2166C73.3008 18.0832 73.7841 18.3332 73.9174 18.7832C74.3674 20.2165 74.7674 21.7165 75.1507 23.2498C75.2674 23.7165 74.9841 24.1831 74.5174 24.2831C74.4507 24.2831 74.3841 24.2998 74.3174 24.2998C73.9341 24.2998 73.5841 24.0331 73.4841 23.6498Z" fill="#EDEDED"/>
<path d="M114.551 39.316C111.135 41.016 90.7018 53.4491 72.4022 122.981L107.001 120.314C107.001 120.314 112.201 93.8815 117.951 81.0818C123.701 68.2821 132.018 55.499 132.018 55.499C132.018 55.499 128.818 30.7662 114.535 39.2994L114.551 39.316ZM114.901 44.3993C116.051 43.3159 117.218 42.2826 118.385 41.3327C118.751 41.0327 119.301 41.0827 119.601 41.4493C119.901 41.816 119.851 42.366 119.484 42.666C118.351 43.5993 117.218 44.5993 116.101 45.6492C115.935 45.7992 115.718 45.8826 115.518 45.8826C115.285 45.8826 115.068 45.7992 114.901 45.6159C114.568 45.2659 114.585 44.7326 114.935 44.3993H114.901ZM108.618 51.1991C109.618 49.9825 110.635 48.7992 111.651 47.6992C111.968 47.3492 112.518 47.3325 112.868 47.6492C113.218 47.9659 113.235 48.5158 112.918 48.8658C111.918 49.9491 110.918 51.0991 109.951 52.2824C109.785 52.4824 109.535 52.5991 109.285 52.5991C109.101 52.5991 108.901 52.5324 108.735 52.3991C108.368 52.0991 108.318 51.5658 108.618 51.1824V51.1991ZM103.135 58.649C104.001 57.349 104.901 56.0823 105.785 54.8657C106.068 54.4824 106.601 54.399 106.985 54.6824C107.368 54.9657 107.451 55.499 107.168 55.8823C106.285 57.0823 105.418 58.3323 104.568 59.5989C104.401 59.8489 104.135 59.9823 103.851 59.9823C103.685 59.9823 103.518 59.9323 103.368 59.8323C102.968 59.5656 102.868 59.0323 103.135 58.649ZM81.9686 114.181C81.2853 116.964 80.952 118.631 80.952 118.648C80.8686 119.064 80.5187 119.331 80.1187 119.331C80.0687 119.331 80.002 119.331 79.952 119.314C79.4853 119.214 79.1854 118.764 79.2853 118.298C79.2853 118.231 79.6187 116.598 80.3187 113.764C80.4353 113.298 80.902 113.014 81.352 113.131C81.8186 113.248 82.102 113.714 81.9853 114.164L81.9686 114.181ZM84.3519 105.348C83.9186 106.815 83.5019 108.298 83.1186 109.748C83.0186 110.131 82.6686 110.381 82.2853 110.381C82.2186 110.381 82.1353 110.381 82.0686 110.348C81.6186 110.231 81.3353 109.748 81.4686 109.298C81.8686 107.831 82.2853 106.331 82.7186 104.865C82.8519 104.415 83.3353 104.148 83.7853 104.281C84.2352 104.415 84.5019 104.898 84.3686 105.348H84.3519ZM87.0852 96.6148C86.6019 98.0481 86.1185 99.5148 85.6685 100.965C85.5519 101.331 85.2186 101.565 84.8519 101.565C84.7686 101.565 84.6852 101.565 84.6019 101.531C84.1519 101.381 83.9019 100.915 84.0352 100.448C84.5019 98.9814 84.9686 97.5148 85.4685 96.0648C85.6185 95.6148 86.1019 95.3815 86.5519 95.5315C87.0018 95.6815 87.2352 96.1648 87.0852 96.6148ZM90.2018 88.0317C89.6518 89.4316 89.1185 90.8816 88.6018 92.3149C88.4685 92.6649 88.1518 92.8816 87.8018 92.8816C87.7018 92.8816 87.6018 92.8816 87.5018 92.8316C87.0518 92.6649 86.8185 92.1816 86.9852 91.7316C87.5018 90.2816 88.0518 88.8316 88.6018 87.415C88.7685 86.965 89.2685 86.7484 89.7185 86.9317C90.1685 87.0983 90.3851 87.5983 90.2018 88.0483V88.0317ZM93.7017 79.5985C93.0851 80.9651 92.4851 82.3818 91.9017 83.7984C91.7684 84.1317 91.4518 84.3317 91.1018 84.3317C90.9851 84.3317 90.8851 84.3151 90.7684 84.2651C90.3351 84.0817 90.1184 83.5818 90.3018 83.1484C90.9018 81.7318 91.5018 80.2985 92.1184 78.9152C92.3184 78.4819 92.8184 78.2819 93.2517 78.4819C93.685 78.6819 93.885 79.1819 93.685 79.6152L93.7017 79.5985ZM97.6516 71.382C96.9683 72.6987 96.285 74.082 95.6183 75.4653C95.4683 75.7653 95.1683 75.9486 94.835 75.9486C94.7184 75.9486 94.585 75.9153 94.4684 75.8653C94.035 75.6653 93.8684 75.1486 94.0684 74.7153C94.735 73.3153 95.435 71.932 96.1183 70.582C96.335 70.1654 96.8516 69.9987 97.2683 70.2154C97.685 70.432 97.8516 70.9487 97.635 71.3653L97.6516 71.382ZM99.0683 67.8154C98.9183 67.8154 98.7849 67.7821 98.6516 67.6988C98.2349 67.4654 98.0849 66.9488 98.3183 66.5321C99.0849 65.1655 99.8682 63.8322 100.652 62.5489C100.902 62.1489 101.435 62.0156 101.835 62.2655C102.235 62.5155 102.368 63.0489 102.118 63.4489C101.352 64.7155 100.568 66.0321 99.8182 67.3821C99.6682 67.6654 99.3682 67.8154 99.0683 67.8154ZM103.218 116.514C103.152 116.931 102.785 117.231 102.368 117.231C102.318 117.231 102.268 117.231 102.218 117.231C101.752 117.148 101.435 116.714 101.518 116.248C101.768 114.748 102.035 113.214 102.318 111.714C102.402 111.248 102.852 110.931 103.318 111.031C103.785 111.115 104.085 111.564 104.001 112.031C103.718 113.514 103.451 115.031 103.201 116.531L103.218 116.514ZM105.901 103.098C105.568 104.548 105.218 106.048 104.901 107.548C104.818 107.948 104.451 108.231 104.068 108.231C104.001 108.231 103.951 108.231 103.885 108.215C103.418 108.115 103.118 107.665 103.218 107.198C103.535 105.681 103.868 104.165 104.218 102.715C104.335 102.248 104.785 101.965 105.251 102.081C105.718 102.198 106.001 102.648 105.885 103.115L105.901 103.098ZM108.201 94.2815C107.785 95.7315 107.385 97.1981 107.001 98.6814C106.901 99.0648 106.551 99.3314 106.168 99.3314C106.101 99.3314 106.018 99.3314 105.951 99.2981C105.485 99.1814 105.218 98.7148 105.335 98.2481C105.718 96.7648 106.135 95.2648 106.551 93.8149C106.685 93.3649 107.151 93.0982 107.618 93.2316C108.068 93.3649 108.335 93.8315 108.201 94.2982V94.2815ZM110.968 85.5984C110.468 87.015 109.985 88.465 109.535 89.915C109.418 90.2816 109.085 90.5149 108.718 90.5149C108.635 90.5149 108.551 90.5149 108.451 90.4816C108.001 90.3316 107.751 89.8483 107.885 89.3983C108.351 87.9317 108.835 86.4484 109.335 85.0317C109.485 84.5817 109.985 84.3484 110.435 84.4984C110.885 84.6484 111.118 85.1484 110.968 85.5984ZM114.218 77.0986C113.635 78.4819 113.068 79.8985 112.518 81.3151C112.385 81.6651 112.068 81.8651 111.718 81.8651C111.618 81.8651 111.518 81.8485 111.418 81.8151C110.968 81.6485 110.751 81.1485 110.918 80.6985C111.468 79.2652 112.051 77.8152 112.635 76.4152C112.818 75.9819 113.318 75.7653 113.768 75.9486C114.201 76.1319 114.418 76.6319 114.235 77.0819L114.218 77.0986ZM118.051 68.8487C117.385 70.1654 116.701 71.5487 116.068 72.932C115.918 73.2486 115.618 73.432 115.285 73.432C115.168 73.432 115.035 73.3986 114.918 73.3486C114.485 73.1486 114.301 72.632 114.501 72.2153C115.151 70.7987 115.835 69.3987 116.518 68.0654C116.735 67.6488 117.251 67.4821 117.668 67.6988C118.085 67.9154 118.251 68.4321 118.035 68.8487H118.051ZM122.534 60.9489C121.751 62.1822 120.968 63.4989 120.201 64.8322C120.051 65.1155 119.751 65.2655 119.451 65.2655C119.301 65.2655 119.168 65.2321 119.034 65.1488C118.618 64.9155 118.485 64.3988 118.718 63.9822C119.501 62.6155 120.301 61.2822 121.101 60.0156C121.351 59.6156 121.884 59.4989 122.284 59.7489C122.684 59.9989 122.801 60.5323 122.551 60.9322L122.534 60.9489ZM125.084 57.2157C124.918 57.449 124.651 57.5656 124.384 57.5656C124.201 57.5656 124.034 57.5156 123.884 57.399C123.501 57.1157 123.418 56.5823 123.701 56.199C125.484 53.7491 126.618 52.5824 126.651 52.5324C126.984 52.1991 127.518 52.1824 127.868 52.5158C128.201 52.8491 128.218 53.3824 127.884 53.7324C127.884 53.7324 126.784 54.8657 125.084 57.199V57.2157Z" fill="#EDEDED"/>
<path d="M156.861 55.5632C156.278 49.93 155.311 37.5969 149.094 36.7136C132.378 35.1636 119.162 37.5969 119.162 37.5969C135.078 37.7136 132.578 72.4628 134.528 86.4459C136.478 100.429 143.278 108.395 152.411 108.395C161.544 108.395 166.211 102.762 168.927 99.0623C159.411 101.012 157.461 61.1797 156.878 55.5465L156.861 55.5632ZM155.394 83.6459C155.761 85.1792 156.161 86.6459 156.611 87.9792C156.761 88.4292 156.511 88.9125 156.061 89.0625C155.978 89.0958 155.878 89.1125 155.794 89.1125C155.428 89.1125 155.094 88.8791 154.978 88.5291C154.511 87.1458 154.094 85.6292 153.728 84.0459C153.611 83.5793 153.911 83.1293 154.361 83.0126C154.828 82.8959 155.278 83.1959 155.394 83.6459ZM132.745 44.7801C132.628 44.8301 132.511 44.8634 132.395 44.8634C132.061 44.8634 131.761 44.6801 131.611 44.3634C130.461 41.8468 129.511 40.4802 129.511 40.4635C129.245 40.0802 129.328 39.5469 129.728 39.2635C130.111 38.9969 130.645 39.0802 130.928 39.4802C130.961 39.5469 131.961 40.9635 133.195 43.6468C133.395 44.0801 133.195 44.5801 132.778 44.7801H132.745ZM134.528 52.8632C134.161 51.3966 133.745 49.93 133.261 48.5467C133.111 48.0967 133.345 47.6134 133.795 47.4634C134.245 47.3134 134.728 47.5467 134.878 47.9967C135.378 49.4467 135.811 50.9466 136.195 52.4633C136.311 52.9299 136.028 53.3966 135.561 53.4966C135.495 53.5132 135.428 53.5132 135.361 53.5132C134.978 53.5132 134.628 53.2466 134.528 52.8632ZM135.411 57.2798C135.345 56.8132 135.661 56.3632 136.128 56.2965C136.595 56.2298 137.045 56.5465 137.111 57.0132C137.345 58.5298 137.545 60.0798 137.661 61.6297C137.695 62.0964 137.345 62.513 136.878 62.5464C136.861 62.5464 136.828 62.5464 136.811 62.5464C136.361 62.5464 135.995 62.213 135.961 61.7631C135.845 60.2631 135.661 58.7465 135.428 57.2798H135.411ZM136.128 66.5296V66.2796C136.128 65.813 136.511 65.413 136.978 65.413C137.445 65.413 137.828 65.7963 137.845 66.263V66.513C137.845 67.9963 137.861 69.4462 137.911 70.8129C137.911 71.2795 137.545 71.6795 137.078 71.6962C137.078 71.6962 137.061 71.6962 137.045 71.6962C136.578 71.6962 136.195 71.3295 136.195 70.8629C136.161 69.4629 136.128 67.9963 136.128 66.513V66.5296ZM136.811 80.096C136.645 78.6294 136.511 77.0794 136.411 75.4961C136.378 75.0294 136.745 74.6128 137.211 74.5794C137.678 74.5461 138.095 74.9128 138.128 75.3794C138.228 76.9461 138.361 78.4794 138.528 79.9127C138.578 80.3793 138.245 80.8126 137.761 80.8626C137.728 80.8626 137.695 80.8626 137.661 80.8626C137.228 80.8626 136.861 80.546 136.811 80.096ZM139.228 89.8958C138.845 89.8958 138.495 89.6291 138.395 89.2458C138.045 87.8292 137.728 86.2959 137.445 84.6959C137.361 84.2292 137.678 83.7792 138.145 83.7126C138.611 83.6293 139.061 83.9459 139.128 84.4126C139.395 85.9792 139.695 87.4625 140.045 88.8291C140.161 89.2958 139.878 89.7625 139.428 89.8791C139.361 89.8958 139.295 89.9125 139.211 89.9125L139.228 89.8958ZM142.895 98.3289C142.761 98.4123 142.611 98.4456 142.478 98.4456C142.178 98.4456 141.895 98.2956 141.728 98.0123C141.011 96.7456 140.345 95.2957 139.761 93.729C139.595 93.2791 139.828 92.7957 140.278 92.6291C140.728 92.4624 141.211 92.6957 141.378 93.1457C141.928 94.629 142.545 95.9957 143.228 97.179C143.461 97.5956 143.311 98.1123 142.911 98.3456L142.895 98.3289ZM149.611 104.295C149.461 104.612 149.161 104.795 148.828 104.795C148.711 104.795 148.578 104.762 148.461 104.712C147.044 104.045 145.711 103.079 144.528 101.862C144.194 101.529 144.211 100.979 144.544 100.646C144.878 100.312 145.428 100.329 145.761 100.662C146.794 101.729 147.944 102.562 149.178 103.146C149.611 103.345 149.794 103.862 149.594 104.295H149.611ZM149.694 43.9134C149.361 43.9134 149.044 43.7134 148.894 43.3801C147.828 40.7802 146.794 39.7635 146.778 39.7469C146.444 39.4135 146.428 38.8802 146.744 38.5302C147.061 38.1802 147.611 38.1636 147.944 38.4969C147.994 38.5469 149.228 39.7302 150.461 42.7135C150.644 43.1468 150.428 43.6468 149.994 43.8301C149.894 43.8801 149.778 43.8968 149.661 43.8968L149.694 43.9134ZM150.978 52.0466C150.794 50.48 150.528 48.9967 150.211 47.63C150.111 47.1634 150.394 46.7134 150.861 46.5967C151.328 46.4967 151.778 46.78 151.894 47.2467C152.228 48.68 152.494 50.23 152.694 51.8466C152.744 52.3133 152.411 52.7466 151.944 52.7966C151.911 52.7966 151.878 52.7966 151.844 52.7966C151.411 52.7966 151.044 52.4799 150.994 52.0466H150.978ZM151.378 59.1131C151.378 58.2298 151.378 57.3631 151.328 56.5298C151.311 56.0632 151.678 55.6632 152.161 55.6465C152.644 55.6299 153.028 55.9965 153.044 56.4798C153.078 57.3298 153.094 58.2298 153.094 59.1298C153.094 59.7798 153.094 60.4298 153.094 61.0797C153.094 61.5464 152.711 61.9464 152.244 61.9464C151.778 61.9464 151.394 61.5631 151.378 61.0964C151.378 60.4298 151.378 59.7798 151.378 59.1131ZM151.761 70.3129C151.644 68.8296 151.561 67.2796 151.511 65.713C151.494 65.2463 151.861 64.8463 152.328 64.813C152.828 64.7963 153.194 65.163 153.228 65.6296C153.294 67.1796 153.378 68.7129 153.478 70.1795C153.511 70.6462 153.161 71.0629 152.678 71.0962C152.661 71.0962 152.628 71.0962 152.611 71.0962C152.161 71.0962 151.794 70.7462 151.761 70.2962V70.3129ZM152.944 73.9628C153.411 73.9128 153.844 74.2461 153.894 74.7128C154.078 76.2794 154.278 77.7794 154.528 79.2127C154.611 79.6793 154.294 80.1293 153.828 80.196C153.778 80.196 153.728 80.196 153.678 80.196C153.261 80.196 152.894 79.896 152.828 79.4793C152.578 78.0294 152.378 76.4794 152.194 74.8961C152.144 74.4294 152.478 73.9961 152.944 73.9461V73.9628ZM157.728 105.529C156.478 105.779 155.261 105.912 154.111 105.912C153.794 105.912 153.478 105.912 153.178 105.879C152.711 105.845 152.344 105.445 152.378 104.962C152.411 104.479 152.794 104.129 153.294 104.162C154.561 104.245 155.944 104.129 157.394 103.829C157.861 103.729 158.311 104.029 158.411 104.495C158.511 104.962 158.211 105.412 157.744 105.512L157.728 105.529ZM160.327 97.1456C160.177 97.2623 159.994 97.3123 159.827 97.3123C159.561 97.3123 159.311 97.1956 159.128 96.9623C158.261 95.779 157.444 94.3957 156.728 92.8791C156.528 92.4457 156.711 91.9457 157.128 91.7291C157.561 91.5291 158.061 91.7124 158.278 92.1291C158.961 93.5457 159.711 94.829 160.511 95.929C160.794 96.3123 160.711 96.8456 160.327 97.129V97.1456ZM164.744 100.929C164.577 101.196 164.294 101.329 164.011 101.329C163.861 101.329 163.694 101.279 163.561 101.196C163.177 100.962 162.811 100.696 162.444 100.412C162.061 100.129 161.994 99.5789 162.294 99.2123C162.577 98.8289 163.127 98.7623 163.494 99.0623C163.811 99.3123 164.144 99.5289 164.477 99.7456C164.877 99.9956 164.994 100.529 164.744 100.929Z" fill="#EDEDED"/>
<path d="M190.938 81.0844C190.938 81.0844 176.872 84.5343 171.622 85.501C171.072 96.4007 168.889 99.084 168.889 99.084C163.672 107.417 153.689 108.417 153.689 108.417C196.322 106.084 190.938 81.1011 190.938 81.1011V81.0844ZM171.489 101.851C169.806 104.401 168.206 105.417 168.139 105.451C168.006 105.534 167.839 105.584 167.689 105.584C167.406 105.584 167.122 105.434 166.956 105.184C166.706 104.784 166.822 104.251 167.222 104.001C167.239 104.001 168.589 103.117 170.056 100.901C170.322 100.501 170.856 100.401 171.239 100.667C171.639 100.934 171.739 101.467 171.472 101.851H171.489ZM173.639 97.6007C173.505 97.9507 173.189 98.1507 172.839 98.1507C172.739 98.1507 172.639 98.134 172.539 98.1007C172.089 97.934 171.872 97.4341 172.039 97.0007C172.539 95.6841 172.939 94.2508 173.239 92.7342C173.322 92.2675 173.789 91.9675 174.239 92.0508C174.705 92.1342 175.005 92.6008 174.922 93.0508C174.605 94.6508 174.189 96.1841 173.655 97.6007H173.639ZM175.489 88.4176C175.455 88.8676 175.089 89.2176 174.639 89.2176C174.622 89.2176 174.605 89.2176 174.589 89.2176C174.122 89.1842 173.755 88.7842 173.789 88.3009C173.822 87.7009 173.855 87.0676 173.855 86.4343C173.855 85.9676 174.272 85.5676 174.722 85.5843C175.189 85.5843 175.572 85.9843 175.572 86.451C175.572 87.1009 175.539 87.7676 175.489 88.4009V88.4176ZM185.939 93.6675C185.139 95.1174 184.205 96.4174 183.172 97.5507C183.005 97.7341 182.772 97.8341 182.539 97.8341C182.339 97.8341 182.122 97.7674 181.955 97.6007C181.605 97.2841 181.589 96.7341 181.905 96.3841C182.855 95.3508 183.705 94.1508 184.439 92.8342C184.672 92.4175 185.189 92.2675 185.605 92.5008C186.022 92.7342 186.172 93.2508 185.939 93.6675ZM187.822 89.3176C187.705 89.6842 187.372 89.9009 187.005 89.9009C186.922 89.9009 186.822 89.9009 186.739 89.8509C186.289 89.7009 186.039 89.2176 186.189 88.7676C186.988 86.3343 187.188 84.501 187.205 84.4843C187.255 84.0177 187.672 83.6677 188.155 83.7177C188.622 83.7677 188.972 84.1843 188.922 84.6677C188.922 84.751 188.705 86.701 187.838 89.3176H187.822Z" fill="#EDEDED"/>
</svg>
